<svg version="1.0" xmlns="http://www.w3.org/2000/svg" width="900.000000pt" height="900.000000pt" viewBox="0 0 900.000000 900.000000" preserveAspectRatio="xMidYMid meet">
    <g transform="translate(0.000000,900.000000) scale(0.100000,-0.100000)" fill="#5192fb" stroke="none">
        <path d="M5394 8810 c-7 -7 -355 -14 -494 -10 -18 1 -783 -7 -875 -8 -5 0 -77 2 -160 5 -82 2 -168 4 -190 4 -22 -1 -56 0 -75 0 -42 2 -262 -1 -305 -3 -16 -1 -172 -1 -345 1 -173 1 -351 -1 -395 -5 -44 -3 -125 -7 -180 -7 -80 -2 -100 -5 -100 -17 0 -37 80 -40 1273 -35 631 2 1163 3 1182 3 287 -4 1474 1 1500 6 19 4 45 9 58 12 34 7 26 24 -12 24 -19 0 -47 5 -63 12 -16 7 -92 12 -183 14 -85 1 -159 3 -165 5 -5 2 -20 -2 -32 -9 -27 -15 -394 -5 -410 12 -9 9 -17 8 -29 -4z" />
        <path d="M6933 8759 c-21 -21 -23 -21 -57 -5 -20 9 -41 14 -47 10 -6 -3 -32 -6 -58 -5 -25 0 -124 -6 -220 -15 l-174 -17 -66 -48 c-36 -27 -74 -55 -84 -61 -10 -7 -19 -22 -20 -33 -3 -32 39 -31 87 3 84 59 237 97 461 113 196 15 289 10 415 -19 90 -21 279 -42 381 -42 127 0 346 31 424 60 19 7 19 7 -1 18 -14 7 -148 13 -385 16 -420 7 -583 16 -601 34 -17 17 -30 15 -55 -9z" />
        <path d="M842 8723 l-842 -3 0 -46 c0 -46 0 -46 28 -38 15 4 43 8 62 7 118 -4 301 -3 337 3 37 5 43 3 58 -19 15 -23 22 -25 63 -21 204 21 476 42 488 37 21 -8 17 -28 -8 -46 -23 -15 -23 -15 -3 -30 20 -15 19 -16 -8 -26 -16 -6 -43 -11 -60 -11 l-32 -1 45 -23 45 -24 130 33 c72 18 146 38 165 44 93 29 364 69 505 75 206 9 326 -8 460 -64 116 -49 150 -55 150 -25 0 15 -22 31 -86 65 -48 25 -105 62 -128 83 l-41 37 -243 -2 c-133 -2 -621 -4 -1085 -5z" />
        <path d="M8023 8713 c-10 -3 -10 -10 -2 -25 9 -17 5 -25 -31 -56 -168 -145 -279 -259 -355 -362 -33 -45 -89 -115 -124 -157 -35 -41 -88 -111 -117 -155 -29 -44 -70 -98 -91 -120 -99 -106 -201 -202 -233 -218 -19 -10 -50 -34 -69 -54 l-34 -35 26 -10 c18 -7 48 -6 99 4 40 7 114 18 163 24 50 6 128 22 174 36 47 14 95 25 107 25 25 0 141 47 235 96 37 19 74 34 83 34 9 0 19 7 22 15 3 8 33 35 66 59 74 55 133 122 117 132 -7 4 -17 0 -24 -9 -8 -12 -27 -17 -58 -17 -41 0 -51 -5 -85 -39 -44 -44 -89 -62 -103 -40 -6 10 -16 4 -42 -25 -29 -35 -41 -41 -108 -53 -147 -28 -144 -27 -147 -51 -4 -24 -32 -31 -32 -8 0 7 -11 21 -25 30 -37 24 -35 78 4 105 16 12 32 32 35 45 3 14 15 27 26 31 23 7 80 82 80 105 0 9 9 25 19 34 16 14 24 15 40 6 17 -9 22 -8 27 5 4 9 2 21 -4 27 -14 14 4 53 34 72 31 21 84 103 84 131 0 18 8 26 38 36 45 15 81 40 82 57 0 7 11 17 25 22 20 8 24 15 20 33 -7 27 44 90 83 102 13 4 27 18 33 32 6 17 14 23 25 19 8 -3 27 3 42 14 21 15 44 20 97 20 39 0 133 1 210 2 281 2 520 -4 530 -13 24 -23 35 -8 35 46 l0 55 -482 -1 c-266 0 -489 -3 -495 -6z" />
        <path d="M4535 8611 c-33 -9 -65 -19 -70 -23 -6 -3 -28 -9 -50 -13 -47 -9 -218 -86 -241 -109 -8 -9 -21 -16 -28 -16 -7 0 -23 -11 -35 -24 -13 -13 -34 -27 -47 -30 -13 -4 -24 -11 -24 -17 0 -6 -32 -40 -70 -76 -39 -36 -73 -77 -76 -90 -4 -13 -11 -27 -18 -31 -25 -16 -66 -82 -77 -125 -27 -110 39 -353 94 -345 18 2 21 9 19 33 -2 17 -7 39 -12 50 -73 164 -65 241 40 379 44 58 161 177 184 186 6 3 27 17 46 32 53 41 251 135 309 147 28 6 74 16 103 22 33 7 135 9 282 5 262 -6 294 -8 356 -28 l45 -15 -44 -12 c-24 -7 -68 -17 -99 -21 -30 -5 -76 -17 -101 -26 -63 -23 -250 -114 -257 -125 -3 -5 -14 -9 -24 -9 -10 0 -31 -11 -47 -24 -15 -13 -39 -27 -53 -31 -14 -4 -50 -31 -80 -61 -81 -78 -128 -121 -177 -161 -24 -19 -43 -41 -43 -49 0 -7 -17 -33 -37 -58 -56 -67 -132 -189 -139 -223 -4 -23 0 -37 19 -58 l24 -29 17 27 c10 14 15 30 12 35 -3 5 7 31 22 59 15 27 35 65 46 84 10 19 29 45 42 59 13 14 54 61 91 105 37 44 74 84 82 89 8 5 24 19 35 31 73 75 344 230 488 279 26 8 56 20 65 25 39 20 154 35 270 36 126 1 158 10 135 37 -11 14 -54 27 -172 53 -41 9 -86 21 -100 27 -95 41 -582 61 -705 29z" />
        <path d="M453 8593 c-18 -6 -16 -23 1 -23 17 0 30 16 19 23 -5 2 -14 2 -20 0z" />
        <path d="M1040 8400 c-13 -9 -10 -14 15 -35 22 -18 42 -25 75 -25 51 0 125 -25 156 -52 26 -23 41 -23 54 2 8 16 17 19 33 14 36 -11 38 -19 12 -55 -20 -26 -35 -35 -68 -40 -49 -8 -186 6 -201 21 -12 12 -46 -6 -46 -24 0 -10 -22 -16 -75 -21 -41 -4 -77 -10 -80 -15 -7 -12 -86 0 -112 16 -32 20 -77 17 -125 -7 -36 -18 -47 -20 -73 -10 -17 6 -37 11 -45 11 -7 0 -28 12 -47 26 -32 24 -36 25 -52 10 -25 -22 -38 -20 -45 9 -8 30 -43 52 -59 36 -14 -14 -67 -14 -67 -1 0 17 -44 11 -67 -9 -31 -26 -29 -34 7 -26 25 5 35 1 57 -23 66 -69 248 -126 443 -137 120 -7 365 6 470 25 119 22 262 49 325 63 186 40 250 51 375 64 236 24 252 27 264 45 19 31 -6 43 -63 30 -68 -15 -259 7 -401 48 -58 16 -169 39 -248 50 -152 21 -386 27 -412 10z" />
        <path d="M6265 8330 c-7 -12 2 -30 16 -30 12 0 12 27 0 35 -5 3 -12 1 -16 -5z" />
        <path d="M471 8288 c0 -7 4 -22 8 -33 8 -19 8 -19 15 2 8 24 1 43 -15 43 -5 0 -9 -6 -8 -12z" />
        <path d="M945 8220 c3 -5 20 -10 36 -10 18 0 28 4 24 10 -3 6 -20 10 -36 10 -18 0 -28 -4 -24 -10z" />
        <path d="M173 8130 c8 -35 -22 -70 -60 -70 -34 0 -28 -16 9 -26 40 -12 78 -65 78 -109 0 -19 8 -39 20 -50 11 -10 20 -24 20 -31 0 -7 13 -23 29 -35 17 -12 35 -34 41 -49 6 -15 27 -42 46 -61 19 -18 34 -38 34 -45 0 -7 10 -16 23 -19 12 -4 38 -24 58 -44 20 -20 42 -40 48 -46 6 -5 22 -26 35 -45 13 -19 28 -34 34 -33 13 3 56 -38 72 -67 7 -12 25 -21 53 -24 243 -30 238 -29 254 -13 21 21 11 33 -33 40 -52 9 -168 72 -249 136 -91 72 -263 248 -280 286 -7 17 -25 40 -39 52 -14 13 -26 28 -26 34 0 6 -11 24 -25 41 -14 16 -25 35 -25 43 0 7 -20 39 -45 70 -24 32 -47 66 -50 76 -10 32 -28 22 -22 -11z" />
        <path d="M4110 8110 c0 -5 7 -10 15 -10 8 0 15 5 15 10 0 6 -7 10 -15 10 -8 0 -15 -4 -15 -10z" />
        <path d="M6475 8070 c27 -12 35 -12 35 0 0 6 -12 10 -27 9 -25 0 -26 -1 -8 -9z" />
        <path d="M2640 8005 c0 -9 6 -12 15 -9 8 4 15 10 15 15 0 5 -7 9 -15 9 -8 0 -15 -7 -15 -15z" />
        <path d="M6965 7959 c-4 -6 -5 -12 -3 -14 7 -7 48 7 48 16 0 13 -37 11 -45 -2z" />
        <path d="M3040 7925 c-132 -21 -277 -81 -397 -166 -31 -21 -60 -39 -65 -39 -19 0 -146 -113 -169 -150 -13 -21 -45 -50 -71 -64 -27 -15 -48 -31 -48 -36 0 -5 -19 -27 -42 -51 -38 -38 -40 -43 -24 -54 15 -11 11 -20 -38 -96 -30 -46 -67 -98 -81 -116 -14 -17 -34 -62 -43 -100 -16 -59 -23 -71 -57 -94 -61 -42 -83 -110 -46 -143 18 -17 21 -17 45 -1 15 10 29 29 32 44 9 38 63 90 101 97 32 6 83 53 83 77 1 16 35 57 48 57 5 0 25 20 45 45 36 47 64 70 154 127 37 23 53 39 53 55 0 18 16 30 86 63 47 22 91 40 97 40 7 0 29 9 50 20 20 11 47 20 59 20 12 0 35 4 52 9 17 5 63 19 103 31 64 20 86 21 190 15 65 -3 129 -10 143 -15 14 -4 50 -16 80 -25 31 -10 72 -32 93 -52 41 -37 72 -40 91 -11 17 27 -1 45 -79 79 -38 17 -79 36 -90 42 -11 6 -45 16 -75 23 -30 7 -71 17 -90 22 -20 5 -60 5 -95 0 -33 -5 -99 -13 -146 -18 -79 -8 -271 -61 -293 -82 -6 -4 -16 -8 -24 -8 -8 0 -30 -7 -50 -16 -100 -44 -139 -67 -153 -89 -8 -12 -63 -66 -123 -120 -60 -53 -123 -116 -139 -139 -33 -46 -76 -85 -94 -86 -15 0 21 80 62 136 17 22 39 58 50 80 11 21 26 43 33 48 10 5 12 19 8 41 -7 35 -7 34 69 89 14 11 33 32 41 47 7 15 23 30 34 34 11 3 20 13 20 20 0 8 17 23 38 34 20 11 55 38 77 61 22 23 65 55 95 72 30 17 68 42 83 55 16 13 41 26 55 29 15 4 38 14 52 22 34 23 79 38 190 66 80 20 115 24 225 22 116 -3 137 -6 194 -30 68 -29 166 -98 214 -150 77 -85 90 -96 112 -96 32 0 41 17 21 39 -9 10 -16 22 -16 28 0 16 -161 161 -210 189 -104 60 -166 76 -305 79 -78 2 -164 -2 -215 -10z" />
        <path d="M8083 7801 c-28 -27 -54 -58 -57 -69 -4 -12 -24 -31 -44 -43 -20 -13 -62 -47 -93 -76 -45 -44 -162 -119 -294 -189 -36 -19 -118 -45 -190 -60 -58 -12 -90 -13 -184 -3 -112 11 -247 9 -269 -5 -9 -5 -9 -13 -2 -27 9 -16 22 -19 89 -19 75 0 121 -10 365 -76 53 -15 208 -90 326 -159 41 -25 91 -52 110 -61 44 -21 53 -34 34 -55 -22 -24 -18 -34 27 -70 23 -18 74 -64 113 -102 39 -37 89 -81 111 -96 22 -16 55 -45 73 -65 38 -42 67 -58 146 -81 32 -9 73 -27 91 -40 95 -64 298 -141 390 -147 34 -3 40 0 40 17 0 13 -8 21 -21 23 -12 2 -26 14 -32 28 -7 13 -19 24 -28 24 -22 0 -150 84 -157 104 -4 9 -27 17 -64 22 -36 4 -73 17 -97 33 -21 14 -44 29 -50 32 -16 9 -107 41 -136 47 -28 6 -49 29 -50 54 0 9 -16 25 -35 36 -19 12 -50 42 -69 69 -19 26 -44 54 -55 61 -12 7 -21 23 -21 37 0 14 -4 25 -10 25 -5 0 -10 -9 -10 -21 0 -29 -20 -19 -48 22 -12 19 -47 62 -77 96 -30 34 -55 68 -55 76 0 18 -21 27 -62 27 -21 0 -31 6 -35 20 -3 11 -9 20 -14 20 -4 0 -17 10 -28 21 -14 16 -28 20 -47 16 -31 -6 -54 0 -54 14 0 15 62 66 102 86 21 10 38 24 38 31 0 7 11 17 24 22 14 5 26 19 28 32 2 15 11 24 26 26 12 2 30 15 39 28 11 17 23 24 40 22 17 -2 27 4 36 22 10 20 21 26 56 28 32 2 41 7 37 17 -8 21 22 85 39 85 22 0 46 54 39 88 -5 25 -3 30 12 29 15 -2 20 6 22 36 2 20 -1 37 -5 37 -5 0 -32 -22 -60 -49z" />
        <path d="M1400 7790 c0 -11 7 -20 15 -20 8 0 15 9 15 20 0 11 -7 20 -15 20 -8 0 -15 -9 -15 -20z" />
        <path d="M1492 7648 c6 -18 28 -21 28 -4 0 9 -7 16 -16 16 -9 0 -14 -5 -12 -12z" />
        <path d="M1345 7600 c-4 -6 6 -10 22 -10 22 0 25 2 13 10 -19 12 -27 12 -35 0z" />
        <path d="M3826 7529 c-42 -10 -107 -63 -144 -117 -20 -29 -22 -39 -12 -65 5 -17 8 -32 5 -35 -2 -3 0 -12 5 -22 7 -13 2 -32 -15 -68 -14 -28 -22 -58 -19 -66 3 -8 1 -17 -5 -21 -6 -3 -11 -32 -11 -64 0 -74 -15 -115 -45 -129 -23 -10 -24 -15 -21 -89 1 -43 7 -87 13 -98 6 -11 13 -47 16 -79 6 -64 25 -99 73 -131 32 -21 66 -68 114 -161 17 -32 38 -63 46 -67 8 -4 14 -14 14 -22 0 -8 8 -20 18 -27 9 -7 25 -25 34 -40 10 -15 31 -35 48 -45 17 -10 47 -41 66 -70 25 -38 47 -58 81 -73 25 -11 51 -20 58 -20 7 0 18 -7 26 -16 8 -10 26 -14 52 -12 28 2 41 -2 48 -15 6 -9 17 -17 25 -17 8 0 38 -12 67 -27 l52 -26 -32 -9 c-30 -8 -47 -28 -23 -28 5 0 9 -24 8 -52 -1 -29 6 -89 15 -133 13 -59 15 -87 7 -109 -14 -41 -12 -73 6 -101 11 -17 14 -36 9 -69 -6 -35 -3 -52 9 -71 9 -13 16 -41 16 -62 0 -21 10 -54 21 -73 20 -32 23 -33 30 -15 13 34 10 66 -10 93 -10 15 -21 43 -23 62 -3 19 -11 49 -19 67 -11 26 -10 34 1 47 12 15 14 15 31 0 11 -10 19 -27 19 -39 0 -28 24 -60 38 -51 19 12 14 45 -19 111 -25 51 -29 67 -20 83 14 26 14 69 1 77 -5 3 -10 26 -10 50 0 24 -6 50 -14 57 -7 8 -16 32 -19 54 -3 21 -9 51 -12 66 -6 24 -3 29 19 38 14 5 26 17 26 26 0 17 -47 66 -93 97 -15 10 -27 26 -27 37 0 11 -10 22 -22 26 -38 12 -118 87 -118 111 0 20 -21 42 -66 69 -16 9 -17 14 -6 27 11 13 10 17 -7 27 -12 6 -21 19 -21 30 0 11 -9 24 -20 30 -26 14 -50 61 -50 99 0 21 -7 35 -25 47 -13 9 -27 26 -31 37 -3 12 -13 30 -22 40 -9 10 -23 68 -34 140 -28 176 -27 207 10 207 43 0 52 56 20 126 -15 33 -35 15 -43 -39 -10 -66 -14 -73 -41 -86 -28 -13 -28 2 -9 -201 2 -19 11 -52 20 -73 8 -20 13 -48 9 -61 -6 -26 19 -56 67 -81 20 -11 28 -24 32 -56 3 -22 15 -51 26 -63 12 -13 21 -36 21 -53 0 -17 8 -41 19 -54 10 -13 28 -42 39 -64 11 -22 37 -53 56 -68 20 -15 36 -34 36 -42 0 -7 9 -17 20 -20 11 -4 28 -19 38 -33 9 -15 24 -32 32 -39 11 -9 12 -15 4 -23 -17 -17 -88 5 -123 38 -62 58 -87 79 -118 97 -18 11 -33 23 -33 27 0 4 -24 32 -53 61 -30 29 -57 66 -61 82 -4 16 -25 50 -47 76 -21 26 -39 51 -39 56 0 20 -51 77 -80 89 -19 8 -32 23 -36 41 -4 15 -10 33 -15 38 -16 21 -48 174 -51 245 -3 72 -2 75 20 78 28 4 42 37 42 97 0 25 6 64 14 87 8 24 18 64 21 90 4 26 14 53 21 59 13 10 11 16 -12 40 l-27 28 28 41 c46 66 73 83 121 75 35 -5 46 -2 70 18 l28 24 -31 17 c-35 18 -41 18 -97 5z" />
        <path d="M2087 7352 c-23 -25 -21 -32 6 -32 30 0 62 24 53 38 -11 18 -41 14 -59 -6z" />
        <path d="M1835 7343 l-30 -16 23 -10 c18 -8 27 -7 39 6 26 26 4 39 -32 20z" />
        <path d="M3302 7343 c2 -11 14 -19 31 -21 23 -3 28 0 25 15 -2 11 -14 19 -31 21 -23 3 -28 0 -25 -15z" />
        <path d="M4370 7340 c11 -20 30 -28 30 -12 0 11 -22 32 -32 32 -5 0 -4 -9 2 -20z" />
        <path d="M4615 7330 c-8 -13 20 -24 36 -15 8 6 7 10 -2 16 -18 11 -26 11 -34 -1z" />
        <path d="M930 7315 c-36 -7 -116 -13 -177 -14 -111 -1 -125 -5 -101 -29 8 -8 5 -14 -16 -21 -14 -6 -37 -10 -49 -9 -12 0 -33 -4 -47 -9 -14 -6 -48 -8 -76 -6 -60 6 -80 -10 -46 -37 51 -42 420 -57 642 -27 63 8 143 18 177 22 104 10 252 42 279 60 24 16 25 18 10 33 -13 13 -38 17 -114 18 -53 0 -122 6 -152 12 -84 17 -256 21 -330 7z" />
        <path d="M4014 7296 c-3 -8 2 -28 10 -45 9 -16 16 -39 16 -50 0 -35 75 -116 156 -169 44 -28 97 -69 119 -91 32 -33 60 -48 143 -76 56 -19 118 -35 138 -35 19 0 57 -7 83 -15 64 -22 190 -17 205 7 17 28 -3 37 -79 39 -122 2 -353 57 -373 89 -11 18 -89 60 -111 60 -5 0 -16 8 -23 19 -7 10 -26 25 -43 34 -54 28 -140 128 -165 190 -19 47 -26 57 -46 57 -14 0 -27 -6 -30 -14z" />
        <path d="M3929 7223 c-4 -69 10 -111 33 -97 11 7 10 57 -2 88 -11 30 -30 35 -31 9z" />
        <path d="M345 7099 c-8 -12 33 -59 52 -59 7 0 23 -15 35 -34 23 -36 65 -56 115 -56 17 0 41 -8 54 -19 13 -10 38 -21 55 -25 17 -4 45 -19 63 -34 30 -26 31 -29 23 -79 -13 -77 -34 -103 -82 -103 -43 0 -45 -2 -30 -30 14 -26 -21 -84 -60 -100 -17 -7 -30 -19 -30 -27 0 -8 -13 -28 -30 -45 -16 -16 -30 -37 -30 -47 0 -19 -35 -61 -50 -61 -6 0 -10 -11 -10 -24 0 -33 -30 -43 -51 -17 -15 18 -19 18 -35 6 -13 -10 -15 -17 -8 -22 6 -5 16 -17 22 -29 15 -28 -2 -44 -45 -44 -36 0 -42 -14 -17 -41 15 -17 15 -21 -14 -53 -17 -19 -33 -43 -36 -54 -4 -10 -17 -24 -31 -30 -13 -6 -27 -22 -29 -34 -23 -112 -17 -103 -69 -106 -26 -2 -47 -7 -47 -12 0 -4 16 -17 35 -29 35 -20 45 -44 24 -57 -6 -3 -17 -22 -25 -40 -16 -38 -56 -69 -78 -61 -12 5 -15 -19 -15 -151 -1 -85 1 -154 3 -151 10 10 44 112 45 137 1 7 12 18 26 24 14 6 28 23 32 37 10 41 52 132 74 159 10 14 19 33 19 44 0 26 92 202 141 268 22 30 51 72 64 92 14 20 37 51 53 70 16 18 32 42 36 54 3 11 16 26 29 33 12 7 33 29 46 49 12 20 43 53 66 72 34 27 44 42 44 66 1 22 14 44 48 80 46 47 119 103 136 104 5 0 27 13 50 28 63 42 79 51 117 68 54 23 102 46 132 61 14 7 40 13 56 13 17 0 43 5 59 11 29 11 83 57 83 71 0 20 -98 -1 -245 -52 -62 -22 -78 -22 -230 -2 -36 4 -72 16 -90 30 -16 12 -61 31 -100 41 -38 11 -102 34 -142 50 -40 17 -83 31 -96 31 -13 0 -36 9 -50 20 -28 22 -52 26 -62 9z" />
        <path d="M475 6880 c-8 -13 15 -24 27 -12 6 6 4 11 -6 15 -8 3 -18 2 -21 -3z" />
        <path d="M1540 6823 c-8 -3 -31 -19 -51 -34 -20 -16 -44 -29 -53 -29 -23 0 -119 -64 -134 -90 -7 -12 -34 -31 -60 -42 -50 -22 -81 -52 -82 -80 0 -23 8 -22 45 2 17 11 50 33 75 50 53 35 61 36 85 10 22 -24 29 -25 50 -4 10 10 14 26 11 38 -4 17 1 24 24 33 16 6 41 29 57 51 15 23 33 41 40 42 16 0 36 37 28 50 -7 11 -12 11 -35 3z" />
        <path d="M610 6790 c-8 -5 -11 -12 -8 -16 11 -10 60 5 53 16 -8 12 -26 12 -45 0z" />
        <path d="M2205 6791 c-7 -12 12 -24 25 -16 11 7 4 25 -10 25 -5 0 -11 -4 -15 -9z" />
        <path d="M2760 6755 c0 -16 9 -19 34 -9 25 9 19 24 -9 24 -16 0 -25 -6 -25 -15z" />
        <path d="M6290 6750 c0 -15 5 -20 18 -18 9 2 17 10 17 18 0 8 -8 16 -17 18 -13 2 -18 -3 -18 -18z" />
        <path d="M1687 6683 c-31 -38 -66 -78 -77 -90 -22 -21 -22 -22 -3 -53 17 -30 17 -32 1 -44 -10 -7 -18 -17 -18 -22 0 -6 -16 -34 -35 -64 -20 -30 -40 -73 -46 -95 -6 -22 -28 -58 -49 -81 -21 -23 -41 -55 -44 -72 -4 -16 -16 -38 -27 -48 -16 -14 -49 -69 -49 -81 0 -2 11 -8 25 -13 32 -12 32 -33 -1 -59 -22 -17 -24 -25 -18 -55 3 -20 2 -42 -4 -49 -10 -12 -15 -37 -31 -152 -14 -96 -21 -115 -53 -131 -17 -9 -28 -22 -27 -32 2 -9 -1 -32 -5 -50 -5 -20 -4 -38 2 -44 6 -6 5 -19 -4 -36 -8 -15 -14 -31 -14 -37 0 -5 -30 -27 -65 -49 -36 -21 -65 -44 -65 -52 0 -7 -15 -25 -32 -38 -92 -72 -170 -124 -200 -135 -18 -7 -55 -23 -83 -36 -27 -13 -61 -27 -75 -30 -14 -4 -32 -14 -41 -21 -26 -23 -76 -36 -239 -64 -73 -12 -163 -44 -168 -59 -7 -21 29 -40 56 -30 13 5 36 9 51 9 16 0 35 7 42 16 9 11 23 14 46 11 18 -3 35 -1 38 4 4 5 24 9 46 9 22 0 56 8 77 19 20 10 59 19 85 20 31 1 58 9 76 22 29 22 31 22 138 13 71 -6 72 -6 78 19 4 14 18 35 31 48 13 12 24 30 24 40 0 10 11 30 23 46 13 15 27 40 30 54 4 15 27 48 51 74 35 37 49 45 66 40 18 -6 20 -12 14 -56 -5 -33 -3 -54 6 -64 11 -13 11 -20 0 -40 -20 -37 -9 -164 18 -207 12 -20 22 -46 22 -60 0 -24 21 -78 30 -78 7 0 4 62 -5 82 -4 10 0 27 9 40 20 28 20 38 2 38 -27 0 -39 27 -26 64 9 28 8 45 -5 91 -14 45 -15 62 -5 85 7 17 9 46 5 74 -6 35 -3 52 9 71 17 26 21 70 7 79 -13 8 -1 98 15 117 8 8 14 21 14 28 0 7 11 22 25 33 22 17 25 27 25 81 0 43 6 74 20 100 15 28 18 42 10 56 -7 14 -6 22 5 31 8 7 15 23 15 37 0 37 34 128 90 237 27 55 50 108 50 118 0 10 7 21 15 24 9 4 15 19 15 39 0 19 8 39 20 50 11 10 20 22 20 26 0 10 58 97 70 104 5 3 6 21 3 39 -6 37 14 74 69 130 36 36 38 76 4 76 -17 0 -39 -19 -79 -67z" />
        <path d="M7230 6715 c0 -10 7 -15 18 -13 21 4 19 22 -2 26 -10 2 -16 -3 -16 -13z" />
        <path d="M4140 6646 c0 -14 -4 -28 -10 -31 -18 -11 -10 -42 14 -53 26 -11 41 -68 24 -89 -5 -7 -8 -22 -6 -35 3 -25 39 -35 83 -24 29 7 41 37 21 52 -9 6 -16 20 -16 31 0 11 -9 28 -20 38 -11 10 -23 36 -27 58 -5 35 -35 77 -55 77 -4 0 -8 -11 -8 -24z" />
        <path d="M2051 6614 c-32 -27 -38 -52 -21 -83 8 -15 -2 -31 -51 -87 -34 -38 -66 -79 -72 -91 -5 -12 -25 -27 -43 -33 -37 -12 -45 -38 -19 -60 10 -9 12 -17 5 -30 -15 -29 -40 -32 -59 -8 -10 12 -23 18 -29 14 -20 -12 -13 -42 13 -56 29 -15 32 -25 9 -34 -14 -5 -14 -8 0 -28 22 -31 20 -70 -4 -101 -11 -14 -20 -30 -20 -35 0 -5 -11 -34 -23 -63 -13 -30 -27 -69 -31 -88 -3 -19 -13 -42 -21 -51 -9 -10 -18 -41 -22 -69 -3 -28 -10 -54 -14 -57 -5 -3 -9 -15 -9 -28 0 -13 -14 -35 -31 -50 -29 -26 -31 -32 -27 -77 4 -34 1 -49 -9 -53 -7 -3 -13 -19 -13 -35 0 -17 -20 -68 -43 -114 -25 -47 -46 -102 -49 -128 -3 -25 -13 -61 -22 -81 -22 -45 -18 -74 9 -71 11 2 35 4 54 5 l35 3 3 88 c2 49 9 100 17 115 7 15 17 52 21 82 4 30 12 61 18 68 7 9 6 20 -1 37 -10 22 -7 31 23 71 19 25 35 53 35 63 0 9 14 28 30 43 21 19 30 35 30 58 0 17 4 39 10 49 5 10 12 32 14 48 3 16 15 50 26 76 11 25 23 67 27 93 3 26 12 59 20 74 7 14 13 31 13 38 0 7 13 25 30 39 23 19 29 30 24 48 -3 12 -1 26 5 29 6 4 11 18 11 30 0 13 7 29 15 36 8 7 25 33 37 58 13 25 53 91 90 146 42 63 63 105 57 111 -15 15 -10 33 18 59 22 21 24 27 14 40 -19 23 -45 20 -80 -10z" />
        <path d="M2487 6595 c-15 -13 -30 -38 -34 -56 -3 -18 -15 -35 -28 -41 -13 -6 -25 -23 -29 -39 -4 -22 -17 -34 -56 -54 -45 -23 -51 -29 -48 -53 4 -39 39 -41 77 -3 20 19 42 31 59 31 54 0 87 50 101 154 6 42 11 79 11 82 0 12 -28 1 -53 -21z" />
        <path d="M3060 6581 c0 -5 5 -22 10 -36 9 -23 4 -37 -36 -103 -26 -42 -62 -94 -81 -116 -22 -24 -33 -45 -30 -57 3 -10 -4 -28 -14 -40 -10 -12 -19 -31 -19 -43 0 -12 -9 -48 -20 -80 -11 -33 -20 -70 -20 -83 0 -13 -9 -42 -20 -63 -13 -25 -20 -56 -18 -85 1 -30 -4 -51 -15 -63 -10 -10 -17 -29 -17 -41 0 -12 -7 -35 -15 -51 -8 -16 -22 -50 -31 -77 -9 -26 -30 -63 -46 -81 -24 -29 -27 -36 -16 -49 11 -13 10 -18 -6 -27 -10 -6 -33 -21 -52 -33 -18 -12 -57 -28 -86 -36 -29 -8 -70 -22 -90 -30 -33 -15 -38 -15 -52 -1 -12 11 -13 20 -6 34 6 10 10 41 10 69 0 43 4 52 29 70 39 28 62 66 66 107 2 26 15 46 48 79 39 37 68 97 55 110 -2 3 -20 0 -41 -6 -33 -9 -36 -13 -39 -52 -3 -37 -6 -42 -28 -42 -19 0 -30 -10 -47 -43 -12 -24 -27 -50 -33 -57 -7 -8 -9 -22 -6 -31 4 -10 -5 -26 -26 -46 -18 -17 -33 -36 -33 -42 -1 -6 -7 -24 -14 -41 -8 -16 -17 -61 -21 -100 -4 -38 -16 -86 -27 -105 -25 -45 -74 -100 -90 -100 -12 0 -43 -38 -43 -52 0 -19 41 -5 62 21 22 27 25 28 58 18 41 -14 57 -57 21 -57 -24 0 -44 -32 -39 -62 3 -20 26 -25 97 -19 19 2 23 61 7 86 -34 52 -14 133 43 170 17 11 32 26 33 34 3 16 96 45 213 67 94 17 127 29 151 55 15 17 16 19 0 25 -23 9 -38 41 -31 64 4 11 20 27 36 35 24 13 29 22 29 54 0 24 8 48 21 65 13 17 18 33 14 47 -4 12 0 35 8 53 26 53 47 136 47 186 0 30 6 52 15 60 8 7 20 31 27 54 6 22 18 50 25 61 7 11 13 32 13 48 0 34 22 88 43 105 9 8 21 30 28 50 6 20 19 46 29 57 10 11 25 37 34 58 8 20 20 37 25 37 19 0 12 23 -16 52 -25 27 -73 39 -73 19z" />
        <path d="M6590 6555 c0 -4 19 -35 41 -68 23 -34 53 -86 66 -116 31 -70 50 -91 80 -91 30 0 40 25 20 48 -8 9 -20 36 -26 59 -7 23 -16 45 -21 48 -6 3 -10 14 -10 24 0 28 -72 91 -113 98 -20 3 -37 2 -37 -2z" />
        <path d="M1097 6500 c-14 -36 -19 -40 -49 -40 -29 0 -37 -5 -49 -32 -15 -35 -93 -85 -104 -68 -11 17 -25 11 -25 -11 0 -34 -18 -56 -50 -63 -23 -4 -31 -10 -28 -23 2 -11 11 -17 23 -15 83 12 98 17 111 38 9 12 29 26 45 29 30 7 49 30 49 62 1 19 61 63 86 63 8 0 14 10 14 24 0 14 7 32 17 41 14 14 14 18 2 26 -22 14 -25 12 -42 -31z" />
        <path d="M1290 6518 c0 -4 7 -8 15 -8 8 0 15 -9 15 -20 0 -14 7 -20 23 -20 26 0 74 44 59 54 -14 9 -112 3 -112 -6z" />
        <path d="M6914 6514 c-19 -8 -3 -45 23 -55 17 -6 35 -4 61 7 36 15 37 15 59 -12 18 -23 24 -26 37 -15 13 11 25 11 60 2 80 -20 138 -9 108 21 -25 25 -310 67 -348 52z" />
        <path d="M4664 6445 c-4 -15 1 -44 11 -70 9 -25 14 -49 10 -55 -10 -17 4 -47 25 -53 11 -3 20 -12 20 -21 0 -21 -17 -20 -29 1 -9 17 -11 16 -30 -1 -27 -25 -28 -79 -2 -140 13 -28 22 -79 26 -138 5 -90 13 -130 41 -196 8 -18 14 -41 14 -52 0 -13 8 -20 27 -22 16 -2 32 -12 38 -24 6 -12 17 -29 24 -38 8 -9 14 -33 15 -54 1 -31 5 -38 25 -40 13 -2 28 2 32 10 12 18 11 65 -1 73 -5 3 -10 15 -10 26 0 11 -11 35 -25 53 -14 18 -25 40 -25 49 0 8 -11 28 -23 44 -17 20 -26 46 -30 90 -4 34 -13 81 -22 105 -18 52 -19 110 -3 126 8 8 5 14 -15 21 -19 8 -27 18 -27 35 0 32 12 39 46 26 33 -13 42 -6 26 20 -7 11 -12 32 -12 46 0 16 -10 36 -25 50 -29 26 -32 46 -10 64 13 11 9 18 -25 51 -47 46 -57 48 -66 14z" />
        <path d="M1292 6438 c-12 -12 -17 -48 -6 -48 10 0 42 45 37 52 -6 11 -17 10 -31 -4z" />
        <path d="M7298 6429 c-21 -11 -38 -23 -38 -28 0 -12 101 -20 128 -10 27 10 29 35 3 49 -28 14 -51 12 -93 -11z" />
        <path d="M5165 6378 c4 -18 8 -44 10 -58 5 -52 50 -166 77 -198 15 -18 28 -37 28 -42 0 -6 10 -10 23 -10 29 0 71 -58 55 -77 -13 -16 -15 -14 44 -34 52 -18 74 -9 57 23 -6 11 -21 18 -39 18 -33 0 -38 11 -15 30 16 14 20 56 6 64 -5 3 -14 -1 -21 -9 -16 -19 -30 -10 -30 20 0 15 -7 26 -21 30 -16 6 -19 12 -14 36 6 24 3 31 -19 40 -16 8 -27 23 -31 43 -4 17 -14 42 -23 56 -9 14 -18 41 -22 60 -5 31 -9 35 -39 38 -34 3 -34 3 -26 -30z" />
        <path d="M5710 6390 c0 -5 9 -10 20 -10 11 0 20 5 20 10 0 6 -9 10 -20 10 -11 0 -20 -4 -20 -10z" />
        <path d="M3365 6364 c-15 -16 -25 -39 -25 -57 0 -16 -11 -42 -25 -59 -24 -29 -34 -68 -16 -68 4 0 21 12 36 26 18 16 35 24 49 21 15 -4 28 3 44 23 22 29 22 29 3 40 -20 10 -20 11 -2 42 11 17 17 37 14 44 -9 23 -52 16 -78 -12z" />
        <path d="M7470 6370 c0 -21 68 -42 93 -29 31 17 13 34 -41 39 -42 5 -52 3 -52 -10z" />
        <path d="M4210 6370 c-13 -8 -13 -10 2 -10 21 0 48 -37 48 -67 0 -26 25 -31 34 -7 11 29 6 50 -17 72 -25 24 -44 27 -67 12z" />
        <path d="M1222 6328 c-31 -31 5 -51 49 -27 16 8 18 13 8 25 -14 17 -41 18 -57 2z" />
        <path d="M2400 6330 c-8 -5 -15 -19 -16 -32 -2 -34 -29 -91 -53 -112 -26 -24 -26 -32 0 -46 29 -16 46 2 65 69 10 35 26 64 42 78 22 18 24 24 13 37 -15 18 -29 20 -51 6z" />
        <path d="M5730 6321 c0 -11 12 -34 27 -51 18 -22 28 -47 31 -81 4 -39 11 -54 35 -75 26 -22 29 -28 18 -50 -16 -37 -14 -62 9 -74 15 -8 19 -17 14 -34 -3 -13 -1 -27 6 -31 7 -4 9 -27 5 -63 -4 -46 -1 -70 21 -127 35 -96 40 -132 20 -154 -11 -12 -14 -28 -10 -52 12 -71 56 -155 75 -143 14 8 10 50 -6 64 -19 16 -9 67 22 104 20 24 22 31 10 45 -26 33 -39 70 -33 96 7 25 7 26 35 9 41 -24 59 -14 56 34 -2 43 -37 102 -61 102 -18 0 -18 -4 2 -42 15 -29 15 -32 -1 -44 -27 -20 -50 -1 -65 50 -15 54 -9 66 36 66 38 0 45 14 15 30 -11 5 -22 23 -26 39 -3 16 -17 39 -31 51 -14 14 -24 35 -24 50 0 19 -7 30 -24 38 -21 9 -23 15 -19 55 5 38 1 48 -25 78 -17 19 -32 48 -34 63 -1 16 -10 32 -18 36 -8 4 -25 12 -37 19 -20 10 -23 9 -23 -8z" />
        <path d="M7615 6308 c-16 -39 -2 -64 19 -35 15 19 66 23 98 6 11 -6 47 -15 81 -19 50 -8 62 -6 72 7 10 14 16 13 53 -11 48 -30 87 -33 121 -10 21 15 27 15 77 -1 44 -14 69 -15 122 -9 37 4 87 8 112 9 38 0 45 3 45 20 0 21 -22 24 -170 16 -90 -5 -250 6 -272 17 -11 6 -35 11 -54 11 -77 0 -151 9 -162 20 -6 6 -37 11 -69 11 -57 0 -59 -1 -73 -32z" />
        <path d="M2249 6313 c-1 -4 -2 -17 -3 -28 -1 -13 -11 -21 -36 -26 -35 -7 -60 -31 -60 -58 0 -8 -7 -23 -17 -33 -11 -12 -12 -18 -3 -18 6 0 21 11 32 25 11 14 29 25 41 25 12 1 37 14 55 29 26 22 33 35 30 57 -3 26 -36 49 -39 27z" />
        <path d="M7110 6310 c-12 -8 -9 -10 13 -10 16 0 26 4 22 10 -8 12 -16 12 -35 0z" />
        <path d="M8970 6310 c0 -5 7 -10 15 -10 8 0 15 5 15 10 0 6 -7 10 -15 10 -8 0 -15 -4 -15 -10z" />
        <path d="M6285 6286 c-15 -11 -15 -13 4 -30 19 -17 20 -17 30 3 14 25 14 28 -3 34 -8 3 -22 0 -31 -7z" />
        <path d="M8817 6265 c-15 -8 -35 -22 -44 -31 -10 -9 -33 -23 -53 -31 -19 -8 -53 -23 -75 -33 -22 -11 -71 -31 -110 -46 -38 -14 -95 -39 -125 -54 -74 -37 -312 -110 -358 -110 -11 0 -35 -6 -53 -14 -27 -11 -87 -14 -274 -13 -209 2 -240 0 -243 -13 -2 -12 16 -22 66 -38 38 -12 78 -22 90 -22 12 0 39 -9 59 -20 21 -11 44 -20 51 -20 30 0 253 -130 282 -165 7 -8 18 -15 24 -15 6 0 20 -9 29 -21 22 -25 41 -21 45 10 4 24 -42 73 -97 103 -17 9 -31 25 -31 34 0 21 76 98 89 90 5 -3 30 3 56 14 26 11 56 18 67 15 12 -4 32 4 57 24 44 35 73 48 155 67 42 10 71 26 104 55 30 26 51 37 61 33 39 -16 51 -15 67 5 10 12 29 21 41 21 14 0 28 10 37 28 23 44 64 78 78 64 21 -21 38 -13 38 18 0 18 8 37 19 47 37 31 -1 45 -52 18z" />
        <path d="M1190 6250 c-13 -8 -13 -11 2 -26 16 -17 18 -17 24 0 9 23 -7 38 -26 26z" />
        <path d="M6770 6238 c0 -13 7 -32 15 -42 8 -11 15 -27 15 -36 0 -9 9 -25 20 -35 11 -10 20 -28 20 -41 0 -22 17 -70 43 -119 5 -11 14 -27 18 -35 4 -8 12 -42 19 -75 20 -102 33 -149 47 -170 20 -29 16 -82 -9 -115 -21 -29 -21 -29 -3 -97 10 -37 20 -97 21 -133 8 -184 15 -264 25 -277 9 -10 8 -18 -5 -32 -9 -10 -14 -25 -11 -34 7 -17 38 -28 52 -18 16 10 25 124 13 156 -8 20 -7 38 1 62 11 36 0 139 -22 195 -8 18 -8 60 -1 135 6 64 6 127 1 156 -23 125 -37 173 -65 230 -8 16 -14 41 -14 55 0 45 -11 72 -29 72 -26 0 -65 81 -58 119 11 56 -24 100 -80 101 -7 0 -13 -10 -13 -22z" />
        <path d="M7325 6250 c3 -5 13 -10 21 -10 8 0 14 5 14 10 0 6 -9 10 -21 10 -11 0 -17 -4 -14 -10z" />
        <path d="M5520 6240 c0 -13 11 -13 30 0 12 8 11 10 -7 10 -13 0 -23 -4 -23 -10z" />
        <path d="M755 6218 c-11 -6 -29 -20 -39 -30 -20 -18 -20 -18 0 -18 15 -1 14 -4 -8 -16 -33 -17 -35 -29 -8 -44 14 -8 26 -8 40 0 23 12 25 21 9 37 -9 9 -5 14 14 18 27 7 44 36 32 55 -8 13 -15 12 -40 -2z" />
        <path d="M6316 6208 c3 -13 13 -30 20 -39 8 -8 14 -24 14 -33 0 -10 9 -29 20 -43 12 -15 18 -34 15 -44 -7 -20 39 -99 57 -99 6 0 2 -10 -10 -23 -49 -53 -6 -86 53 -41 40 30 44 48 14 64 -16 9 -19 18 -14 39 4 19 1 32 -11 42 -9 7 -25 33 -35 56 -10 23 -27 48 -38 55 -12 7 -21 23 -21 35 0 15 -10 28 -30 38 -39 20 -43 19 -34 -7z" />
        <path d="M1116 6137 c-20 -19 -36 -41 -36 -49 0 -8 -24 -30 -52 -48 -29 -19 -78 -52 -108 -74 -30 -23 -67 -48 -82 -56 -15 -8 -54 -34 -88 -57 -33 -24 -64 -43 -70 -43 -5 0 -23 -13 -40 -30 -17 -16 -36 -30 -43 -30 -7 0 -38 -25 -70 -55 -32 -30 -65 -55 -72 -55 -8 0 -30 -16 -49 -35 -20 -19 -42 -35 -50 -35 -28 0 -63 -22 -80 -51 -10 -17 -30 -32 -49 -37 -22 -6 -37 -18 -48 -42 -9 -18 -27 -43 -41 -54 -27 -24 -63 -76 -51 -76 29 0 83 24 87 38 4 10 31 30 60 45 30 16 58 37 61 47 4 11 15 20 25 20 11 0 24 10 31 21 9 17 17 20 46 16 32 -6 35 -4 49 29 12 28 19 34 32 28 9 -4 31 -7 48 -7 59 2 72 -71 17 -94 -36 -16 -93 -49 -107 -63 -5 -5 -18 -10 -28 -10 -21 0 -25 -39 -6 -58 13 -13 -5 -42 -26 -42 -7 0 -27 -11 -45 -24 -18 -14 -40 -22 -48 -19 -11 4 -13 0 -7 -21 3 -15 1 -32 -5 -40 -7 -8 -10 -20 -9 -27 4 -17 -35 -27 -114 -28 -78 -1 -83 -9 -38 -58 42 -47 91 -46 143 3 27 25 37 42 34 55 -4 15 3 21 34 30 29 9 62 37 131 111 142 151 219 228 228 228 4 0 10 14 14 30 4 20 16 37 37 48 56 31 80 54 95 91 8 20 29 46 47 57 19 12 52 53 75 91 23 38 62 93 87 122 25 29 45 57 45 62 0 6 20 31 45 58 31 33 45 57 47 81 4 45 -13 47 -56 7z m-427 -466 c17 -13 22 -23 16 -40 -9 -30 -91 -70 -132 -64 -35 6 -43 17 -18 27 8 3 21 18 27 33 14 33 47 63 68 63 8 0 26 -9 39 -19z" />
        <path d="M1690 6155 c-7 -9 -11 -17 -8 -20 8 -8 62 11 66 23 6 18 -43 15 -58 -3z" />
        <path d="M3240 6139 c-6 -11 -20 -29 -31 -40 -22 -22 -25 -49 -5 -49 8 0 21 -3 30 -6 10 -4 18 1 22 12 4 11 16 29 27 41 20 23 17 37 -13 53 -15 8 -21 6 -30 -11z" />
        <path d="M3390 6136 c-7 -9 -11 -50 -11 -108 1 -51 1 -100 1 -108 0 -26 8 -74 19 -110 14 -46 14 -93 -1 -125 -9 -21 -9 -31 0 -46 18 -29 14 -55 -10 -71 -19 -13 -23 -26 -26 -85 -4 -67 -3 -71 29 -108 30 -34 33 -43 35 -106 0 -47 -4 -73 -13 -80 -20 -17 -16 -41 12 -79 14 -19 25 -44 25 -56 0 -47 69 -102 111 -89 31 10 22 48 -21 90 -22 21 -40 48 -40 60 0 11 -9 34 -19 51 -11 19 -16 36 -11 44 5 7 4 24 -1 38 -5 13 -12 77 -14 141 -3 64 -10 128 -16 144 -9 20 -8 34 0 55 8 18 9 37 3 53 -12 33 -3 116 14 130 18 15 42 5 54 -23 9 -23 9 -23 9 -1 1 12 4 28 7 36 4 12 -5 18 -38 24 -40 8 -43 11 -40 38 12 140 9 221 -9 257 -23 45 -33 52 -49 34z" />
        <path d="M2748 6116 c-6 -14 -8 -33 -4 -42 6 -15 11 -13 37 15 16 18 27 37 24 42 -12 18 -46 9 -57 -15z" />
        <path d="M625 6120 c-8 -13 4 -32 16 -25 12 8 12 35 0 35 -6 0 -13 -4 -16 -10z" />
        <path d="M2060 6106 c0 -16 -7 -27 -20 -31 -22 -7 -26 -35 -8 -53 18 -18 25 -15 32 13 4 16 13 25 27 25 30 0 36 30 10 52 -31 24 -41 23 -41 -6z" />
        <path d="M2333 6108 c-14 -17 -24 -74 -17 -93 4 -8 14 -15 24 -15 13 0 17 5 13 20 -3 12 2 29 13 41 14 15 16 24 8 36 -14 23 -29 26 -41 11z" />
        <path d="M593 6069 c-13 -5 -23 -15 -23 -22 0 -8 -9 -21 -19 -28 -11 -8 -21 -23 -23 -34 -4 -29 34 -27 47 3 5 12 15 22 21 22 20 0 35 26 27 47 -6 16 -13 19 -30 12z" />
        <path d="M1587 6044 c-12 -12 -8 -42 6 -47 24 -9 44 10 31 30 -12 20 -27 26 -37 17z" />
        <path d="M2660 6018 c-11 -18 -23 -43 -26 -55 -3 -13 -19 -26 -37 -32 -43 -15 -22 -33 34 -29 41 3 44 5 47 33 2 17 14 39 29 51 21 18 23 25 14 43 -17 30 -38 26 -61 -11z" />
        <path d="M5245 6041 c-3 -5 -1 -12 5 -16 12 -7 30 2 30 16 0 12 -27 12 -35 0z" />
        <path d="M5253 5978 c2 -7 10 -13 17 -13 7 0 15 6 18 13 2 7 -5 12 -18 12 -13 0 -20 -5 -17 -12z" />
        <path d="M2000 5940 c0 -5 7 -10 15 -10 8 0 15 5 15 10 0 6 -7 10 -15 10 -8 0 -15 -4 -15 -10z" />
        <path d="M3170 5913 c-1 -105 -8 -165 -24 -198 -10 -20 -15 -43 -12 -50 3 -8 -8 -39 -24 -69 -17 -31 -30 -67 -30 -81 0 -14 -12 -43 -26 -65 l-26 -39 22 -31 c12 -16 26 -30 32 -30 10 0 7 -32 -7 -77 -5 -17 -3 -23 8 -23 9 0 21 -16 28 -37 11 -34 13 -35 26 -17 8 11 11 29 8 46 -11 49 1 67 48 70 l42 3 -47 44 -47 44 5 61 c4 40 14 73 30 96 16 25 23 49 23 80 -1 63 8 120 22 136 6 8 9 27 6 43 -4 17 0 36 9 50 21 30 0 75 -38 79 -26 3 -28 1 -28 -35z" />
        <path d="M471 5927 c-6 -8 -8 -17 -4 -20 9 -10 66 -8 82 2 11 7 10 11 -7 20 -28 15 -57 14 -71 -2z" />
        <path d="M3995 5904 c-13 -31 -14 -44 -5 -64 6 -13 14 -56 17 -95 2 -38 9 -80 15 -92 8 -17 5 -33 -16 -79 -22 -47 -25 -63 -17 -88 10 -31 21 -160 23 -251 0 -27 7 -59 15 -71 9 -14 13 -43 12 -76 -2 -57 23 -128 49 -136 15 -5 10 77 -7 121 -19 49 -22 71 -13 117 7 40 11 45 34 43 22 -1 27 4 33 33 7 40 -9 100 -35 129 -12 13 -21 45 -25 88 -7 62 -5 70 15 92 14 15 19 28 14 37 -9 14 -24 124 -24 176 1 17 -4 40 -9 50 -7 13 -6 27 5 47 17 33 11 42 -33 51 -30 6 -33 4 -48 -32z" />
        <path d="M2290 5920 c0 -5 7 -10 15 -10 8 0 15 5 15 10 0 6 -7 10 -15 10 -8 0 -15 -4 -15 -10z" />
        <path d="M2070 5890 c0 -5 7 -10 15 -10 8 0 15 5 15 10 0 6 -7 10 -15 10 -8 0 -15 -4 -15 -10z" />
        <path d="M5286 5888 c-14 -45 -13 -90 3 -125 10 -21 26 -68 36 -106 17 -63 17 -68 1 -86 -15 -16 -16 -26 -7 -67 19 -93 24 -109 36 -119 7 -5 15 -24 18 -42 8 -42 -11 -56 -76 -59 -54 -1 -111 -13 -163 -35 -36 -14 -84 -5 -84 17 0 8 -7 22 -15 30 -8 9 -15 26 -15 40 0 13 -4 24 -9 24 -5 0 -18 17 -28 38 -55 106 -83 133 -91 88 -7 -32 8 -64 43 -97 19 -19 35 -38 35 -45 0 -6 14 -23 30 -37 37 -34 40 -74 6 -110 -35 -38 -67 -44 -136 -26 -9 3 -16 -4 -18 -18 -4 -26 -42 -55 -94 -72 -29 -10 -46 -10 -73 -1 -33 11 -37 10 -57 -15 -17 -22 -26 -26 -51 -21 -17 4 -41 16 -54 28 l-23 22 -30 -29 c-28 -27 -33 -28 -62 -17 -41 15 -52 7 -31 -24 15 -23 21 -25 59 -19 39 5 44 4 64 -25 23 -32 40 -39 40 -15 0 38 113 50 145 15 10 -11 24 -20 32 -20 7 0 19 -12 25 -27 23 -52 108 -153 129 -153 15 0 10 31 -11 60 -11 15 -24 39 -29 53 -6 14 -28 36 -50 49 -38 22 -51 42 -51 80 0 14 71 58 94 58 25 0 65 -43 68 -73 2 -24 8 -32 23 -32 11 0 19 5 19 10 -1 6 -4 36 -8 67 l-6 57 53 26 c73 34 89 32 121 -13 15 -22 38 -49 51 -60 14 -12 25 -28 25 -35 0 -25 40 -57 70 -57 45 0 38 29 -17 82 -27 26 -61 63 -77 83 -26 33 -28 38 -14 52 9 8 33 19 55 23 21 5 67 16 103 25 54 14 73 15 112 5 39 -9 51 -9 77 4 28 15 33 15 65 0 37 -18 53 -44 62 -105 5 -30 13 -43 30 -50 24 -8 26 -17 28 -84 1 -26 5 -30 34 -33 36 -4 42 12 11 28 -16 9 -19 18 -15 36 5 18 -3 40 -29 82 -60 97 -43 128 51 96 43 -14 56 -16 66 -6 21 21 -37 59 -111 72 -35 6 -78 18 -94 27 -23 12 -35 12 -54 4 -36 -17 -88 -13 -104 7 -23 29 -39 61 -39 80 0 10 -5 23 -10 28 -7 7 -7 19 -1 35 5 14 7 46 4 72 -5 41 -3 47 11 41 20 -8 36 -35 36 -61 0 -10 8 -23 18 -29 9 -6 23 -32 31 -58 17 -60 47 -78 73 -46 22 27 18 36 -22 43 -19 4 -30 13 -30 24 0 9 -12 29 -26 44 l-26 28 21 27 c11 15 21 33 21 41 0 8 -18 44 -40 80 -22 37 -40 74 -40 83 0 9 -9 25 -19 34 -11 10 -21 32 -23 49 -2 23 -12 36 -35 50 -26 15 -34 16 -37 5z" />
        <path d="M5512 5864 c2 -19 15 -33 46 -50 23 -13 45 -24 47 -24 11 0 -11 38 -38 68 -38 39 -60 42 -55 6z" />
        <path d="M6495 5860 c-42 -15 -51 -23 -53 -45 -5 -42 13 -53 42 -26 29 28 46 20 46 -20 0 -29 -1 -30 -35 -23 -31 5 -35 4 -41 -21 -12 -49 41 -63 61 -17 8 19 15 22 40 18 39 -8 77 -45 69 -68 -4 -13 2 -21 21 -28 34 -13 35 -13 35 4 0 29 -39 99 -61 110 -15 7 -25 22 -27 40 -2 18 -11 30 -23 33 -14 4 -16 9 -9 23 17 31 -9 39 -65 20z" />
        <path d="M410 5861 c0 -17 17 -21 51 -14 28 5 30 7 14 14 -28 11 -65 11 -65 0z" />
        <path d="M2297 5863 c-4 -3 -7 -15 -7 -26 0 -17 -2 -18 -16 -6 -14 11 -19 9 -35 -11 -23 -30 -23 -34 -5 -49 12 -10 20 -9 40 4 27 18 68 80 59 89 -8 8 -28 8 -36 -1z" />
        <path d="M1932 5838 c-7 -7 -12 -27 -12 -45 0 -19 -6 -46 -14 -61 -7 -15 -16 -53 -19 -85 -4 -45 -11 -62 -29 -76 -18 -15 -24 -30 -26 -74 -2 -31 2 -65 8 -77 13 -25 49 -27 49 -2 -1 54 19 166 30 170 18 6 48 81 57 139 3 26 11 54 16 60 6 7 7 24 4 38 -7 27 -42 35 -64 13z" />
        <path d="M5055 5750 c-13 -21 5 -59 36 -77 22 -13 29 -23 25 -39 -6 -24 19 -64 40 -64 27 0 26 29 -4 67 -16 21 -34 51 -39 67 -11 34 -47 63 -58 46z" />
        <path d="M5607 5743 c-16 -15 -5 -42 21 -51 30 -10 45 -36 58 -97 7 -30 14 -40 29 -40 16 0 21 8 23 37 3 31 -2 41 -27 64 -17 15 -31 32 -31 39 0 28 -56 65 -73 48z" />
        <path d="M7480 5705 c0 -8 10 -20 23 -26 40 -21 107 -100 107 -126 0 -13 11 -34 24 -46 13 -12 29 -40 36 -62 7 -22 17 -49 23 -60 5 -10 16 -51 24 -90 8 -38 18 -74 23 -80 4 -5 10 -28 13 -50 3 -22 10 -58 15 -80 26 -107 26 -104 -2 -114 -17 -7 -44 -7 -82 0 -62 11 -84 7 -84 -16 0 -19 2 -19 139 -20 l113 0 3 -35 c6 -84 28 -228 41 -265 8 -23 14 -53 14 -68 0 -16 7 -41 15 -57 9 -16 18 -50 22 -76 3 -25 17 -62 30 -81 14 -20 22 -44 20 -55 -7 -24 40 -116 65 -129 10 -5 25 -24 34 -42 17 -31 17 -31 27 -10 7 17 5 30 -12 58 -11 20 -21 41 -21 47 0 6 -8 20 -17 31 -14 15 -18 37 -18 106 0 47 -4 91 -8 98 -5 8 -19 10 -39 6 -24 -5 -30 -3 -26 8 3 8 18 16 34 19 29 6 29 6 7 18 -13 7 -23 21 -23 30 0 10 -7 28 -16 40 -14 20 -14 24 1 38 17 17 13 48 -12 75 -9 11 -12 28 -7 56 5 33 2 44 -21 71 -25 29 -27 38 -21 85 6 45 4 54 -14 69 -11 10 -20 27 -20 37 0 11 -10 27 -22 36 -21 14 -23 24 -23 98 0 80 0 82 -24 79 -22 -2 -23 0 -17 33 4 20 3 50 -3 68 -12 38 -28 102 -36 140 -7 37 16 45 54 18 18 -13 45 -21 69 -21 23 0 44 -5 47 -11 4 -6 25 -9 46 -8 32 3 45 -2 70 -25 37 -35 47 -28 25 18 -11 23 -32 42 -64 59 -26 13 -92 48 -147 76 -55 28 -147 66 -205 83 -63 19 -110 39 -118 50 -16 22 -62 25 -62 3z" />
        <path d="M2210 5677 c0 -13 33 -67 41 -67 13 0 11 44 -3 58 -11 11 -38 17 -38 9z" />
        <path d="M3526 5655 c-3 -10 3 -17 19 -21 32 -8 50 3 34 22 -15 18 -45 18 -53 -1z" />
        <path d="M4770 5630 c0 -20 -7 -46 -16 -58 -13 -18 -14 -29 -5 -54 6 -17 11 -41 11 -53 0 -13 6 -28 14 -34 7 -6 16 -33 20 -59 7 -56 39 -143 52 -143 15 0 16 27 3 73 -7 24 -14 50 -14 58 -1 8 -4 22 -7 30 -20 56 -30 114 -29 170 1 45 -3 71 -13 85 -15 19 -15 18 -16 -15z" />
        <path d="M6510 5605 c-13 -15 -7 -45 8 -45 15 0 44 38 37 49 -9 16 -30 14 -45 -4z" />
        <path d="M6083 5599 c-8 -8 -8 -18 -1 -35 6 -13 14 -24 17 -24 12 1 42 51 36 60 -8 13 -38 13 -52 -1z" />
        <path d="M6683 5590 c-3 -11 -9 -20 -14 -20 -5 0 -9 -7 -9 -15 0 -8 4 -15 9 -15 12 0 41 40 41 57 0 21 -21 15 -27 -7z" />
        <path d="M3533 5573 c-7 -2 -13 -9 -13 -14 0 -15 53 -6 58 9 4 12 -21 15 -45 5z" />
        <path d="M6450 5525 c0 -28 4 -44 10 -40 6 3 10 21 10 40 0 19 -4 37 -10 40 -6 4 -10 -12 -10 -40z" />
        <path d="M8127 5564 c-9 -10 2 -24 19 -24 8 0 14 7 14 15 0 15 -21 21 -33 9z" />
        <path d="M6495 5521 c-8 -25 1 -41 21 -41 11 0 14 8 12 27 -4 33 -24 41 -33 14z" />
        <path d="M6710 5491 c0 -12 5 -21 10 -21 6 0 10 6 10 14 0 8 -4 18 -10 21 -5 3 -10 -3 -10 -14z" />
        <path d="M3616 5492 c-11 -18 12 -86 34 -100 11 -7 20 -21 20 -32 0 -34 42 -111 64 -120 54 -20 61 19 11 64 -19 18 -35 39 -35 47 0 8 -11 30 -25 49 -14 19 -25 39 -25 46 0 21 -36 58 -44 46z" />
        <path d="M2851 5451 c-24 -16 24 -32 87 -29 43 2 57 7 57 18 0 12 -15 16 -65 18 -36 1 -71 -2 -79 -7z" />
        <path d="M6050 5443 c0 -5 4 -15 10 -23 11 -18 25 -7 17 15 -6 15 -27 21 -27 8z" />
        <path d="M6440 5426 c0 -24 12 -41 22 -30 8 7 -3 54 -13 54 -5 0 -9 -11 -9 -24z" />
        <path d="M6736 5404 c-9 -24 -7 -34 8 -34 16 0 29 27 20 41 -8 14 -21 11 -28 -7z" />
        <path d="M6120 5391 c0 -11 5 -23 10 -26 6 -3 10 -17 10 -31 0 -27 21 -32 40 -10 20 25 8 59 -27 73 -31 12 -33 12 -33 -6z" />
        <path d="M1835 5350 c-8 -45 -16 -143 -15 -177 1 -54 0 -82 -4 -141 -4 -51 -2 -64 11 -69 9 -3 23 -2 32 4 13 9 16 33 17 149 1 77 5 160 9 185 5 29 3 54 -4 68 -19 34 -38 25 -46 -19z" />
        <path d="M5967 5343 c-3 -15 0 -38 6 -52 l11 -26 4 25 c2 14 13 33 25 42 l22 17 -28 10 c-36 14 -34 15 -40 -16z" />
        <path d="M6439 5343 c-13 -34 5 -171 28 -216 l15 -30 20 21 c17 17 19 25 10 50 -5 16 -9 60 -7 98 1 38 -2 77 -7 87 -14 27 -47 21 -59 -10z" />
        <path d="M2693 5341 c-6 -10 -9 -36 -6 -59 4 -28 1 -47 -11 -63 -20 -30 -20 -48 1 -71 12 -14 14 -23 6 -41 -5 -12 -7 -47 -4 -77 5 -45 10 -56 26 -58 19 -3 20 3 20 189 0 190 -6 222 -32 180z" />
        <path d="M2601 5326 c-7 -8 -11 -25 -10 -38 2 -15 -7 -33 -24 -50 -25 -25 -31 -48 -30 -113 0 -11 -6 -25 -13 -33 -19 -18 -19 -102 0 -102 27 0 39 28 31 76 -5 37 -2 55 18 97 26 54 54 163 45 172 -3 3 -11 -1 -17 -9z" />
        <path d="M4510 5330 c-12 -8 -12 -12 0 -37 8 -15 24 -41 36 -58 12 -16 25 -40 28 -51 7 -22 43 -60 50 -53 2 2 7 20 11 39 5 30 2 40 -24 69 -17 19 -31 43 -31 52 0 10 -10 25 -22 33 -26 18 -28 19 -48 6z" />
        <path d="M3293 5293 c-36 -5 -41 -14 -19 -33 8 -6 16 -26 18 -43 3 -29 7 -32 40 -35 32 -3 38 0 43 21 4 16 -1 36 -17 60 -13 20 -25 36 -28 35 -3 -1 -20 -3 -37 -5z" />
        <path d="M42 5269 c-19 -17 -30 -49 -17 -49 19 0 55 27 55 41 0 27 -15 30 -38 8z" />
        <path d="M6812 5260 c2 -18 9 -35 16 -38 18 -6 15 43 -4 59 -14 11 -15 9 -12 -21z" />
        <path d="M3006 5215 c-12 -18 -16 -43 -15 -83 2 -31 -1 -72 -5 -89 -8 -29 -6 -33 13 -33 21 0 26 21 22 85 -1 11 5 43 14 70 8 28 15 56 15 63 0 21 -27 13 -44 -13z" />
        <path d="M5807 5218 c-2 -7 11 -28 30 -45 25 -24 44 -33 68 -33 24 0 39 -7 54 -26 25 -32 42 -83 39 -115 -2 -19 2 -25 23 -27 14 -2 31 4 39 12 16 20 64 20 80 1 15 -18 51 -16 57 2 5 14 -10 29 -95 98 -34 28 -67 62 -73 78 -13 32 -10 31 -55 12 -40 -16 -61 -8 -90 34 -17 23 -70 29 -77 9z" />
        <path d="M5440 5202 c0 -19 12 -42 22 -42 14 0 5 43 -9 48 -7 2 -13 -1 -13 -6z" />
        <path d="M6210 5153 c0 -20 18 -43 33 -43 4 0 7 12 5 27 -4 32 -38 46 -38 16z" />
        <path d="M3111 5132 c-9 -22 -10 -40 -1 -71 6 -22 14 -41 19 -41 5 0 11 26 15 57 5 42 3 60 -7 70 -12 12 -16 10 -26 -15z" />
        <path d="M4160 5132 c0 -26 34 -129 47 -144 9 -10 28 -18 43 -18 14 0 35 -7 46 -15 10 -8 31 -15 47 -15 40 0 34 26 -13 50 -40 20 -150 124 -150 141 0 5 -4 9 -10 9 -5 0 -10 -4 -10 -8z" />
        <path d="M5475 5083 c4 -21 13 -49 20 -63 7 -14 16 -33 19 -42 6 -21 44 -24 52 -5 6 17 -29 96 -56 125 -31 33 -43 28 -35 -15z" />
        <path d="M3276 5095 c-10 -28 -7 -53 8 -58 20 -8 38 17 34 45 -4 27 -33 36 -42 13z" />
        <path d="M6457 5067 c-27 -23 -27 -24 -11 -55 12 -24 22 -32 42 -32 22 0 29 6 38 35 10 30 8 37 -11 55 -26 24 -24 24 -58 -3z" />
        <path d="M2218 5008 c-9 -22 3 -38 27 -38 33 0 39 16 13 34 -27 19 -34 20 -40 4z" />
        <path d="M102 5003 c-19 -7 -4 -23 24 -23 27 0 32 15 8 24 -9 3 -16 6 -17 5 -1 0 -8 -3 -15 -6z" />
        <path d="M1485 5000 c-4 -7 -3 -16 3 -22 14 -14 47 -6 47 12 0 18 -40 26 -50 10z" />
        <path d="M2302 4998 c-8 -8 -6 -19 11 -42 15 -22 22 -47 23 -89 1 -32 5 -61 9 -65 10 -11 23 19 30 68 6 42 3 52 -25 93 -36 53 -32 51 -48 35z" />
        <path d="M6787 4972 c-21 -23 -13 -32 29 -32 40 0 54 18 29 37 -25 18 -39 17 -58 -5z" />
        <path d="M3286 4966 c3 -9 11 -16 16 -16 13 0 5 23 -10 28 -7 2 -10 -2 -6 -12z" />
        <path d="M3877 4973 c-13 -12 -7 -23 13 -23 11 0 20 7 20 15 0 15 -21 21 -33 8z" />
        <path d="M1635 4960 c-4 -6 7 -10 24 -10 17 0 31 5 31 10 0 6 -11 10 -24 10 -14 0 -28 -4 -31 -10z" />
        <path d="M2027 4963 c-13 -12 -7 -23 13 -23 11 0 20 7 20 15 0 15 -21 21 -33 8z" />
        <path d="M5847 4964 c-15 -15 -6 -24 24 -24 20 0 29 4 27 13 -5 14 -40 21 -51 11z" />
        <path d="M2522 4948 c-13 -13 -17 -98 -4 -98 16 0 52 46 52 66 0 19 -17 44 -30 44 -3 0 -11 -5 -18 -12z" />
        <path d="M5743 4934 c-6 -17 6 -46 23 -51 13 -3 46 45 39 57 -10 16 -55 11 -62 -6z" />
        <path d="M6275 4942 c-33 -7 -37 -17 -19 -56 22 -45 46 -44 55 4 9 40 -5 59 -36 52z" />
        <path d="M1493 4913 c-30 -47 -48 -54 -58 -23 -12 37 -25 20 -25 -31 0 -43 2 -50 17 -45 20 8 63 -30 63 -55 0 -10 4 -20 9 -23 14 -9 22 -68 10 -82 -25 -31 -9 -184 20 -184 14 0 16 26 16 250 0 193 -2 215 -17 218 -10 2 -24 -8 -35 -25z" />
        <path d="M1850 4920 c-5 -10 -10 -34 -10 -52 0 -19 -4 -38 -9 -43 -4 -6 -13 -28 -18 -50 -6 -22 -14 -49 -18 -59 -7 -16 -5 -18 14 -13 13 3 38 -2 57 -11 51 -24 61 -8 46 68 -9 42 -10 66 -2 79 14 27 13 66 -2 78 -28 21 -48 22 -58 3z" />
        <path d="M3564 4908 c4 -18 8 -42 9 -53 7 -57 35 -120 65 -146 19 -17 30 -34 26 -41 -4 -6 2 -18 14 -27 21 -16 72 -105 72 -125 0 -6 20 -31 45 -55 24 -24 47 -57 50 -72 4 -17 19 -36 36 -46 19 -12 31 -28 35 -51 4 -23 14 -36 30 -43 14 -5 29 -20 34 -34 5 -14 16 -25 24 -25 8 0 27 -16 42 -35 14 -19 32 -35 38 -35 7 0 25 -14 42 -31 33 -35 140 -109 158 -109 6 0 23 -15 38 -34 38 -48 159 -126 194 -126 36 0 66 19 45 27 -30 12 -90 88 -111 142 -13 31 -27 61 -32 67 -17 23 -58 105 -58 118 0 7 -12 35 -26 62 -14 27 -32 73 -40 102 -8 29 -23 72 -34 94 -11 23 -20 49 -20 59 0 9 -7 22 -15 29 -8 7 -15 22 -15 34 0 11 -6 33 -14 48 -12 23 -12 29 0 39 21 17 17 29 -9 29 -21 0 -23 -5 -24 -52 0 -29 4 -62 10 -73 7 -11 12 -33 13 -50 1 -31 26 -110 50 -157 8 -14 14 -37 14 -51 0 -13 6 -30 14 -36 8 -7 18 -27 22 -44 3 -18 26 -71 49 -120 24 -48 39 -89 35 -92 -11 -7 -55 17 -83 44 -12 12 -54 49 -94 82 -39 33 -81 75 -93 94 -12 19 -26 35 -31 35 -20 0 -112 96 -134 140 -28 52 -127 160 -149 160 -8 0 -19 14 -25 31 -6 17 -22 44 -36 61 -14 16 -25 38 -25 49 0 11 -10 36 -23 57 -21 33 -57 114 -57 128 0 3 16 2 36 -2 35 -6 36 -6 29 17 -11 35 -21 42 -37 26 -12 -13 -17 -12 -37 4 -37 30 -54 25 -47 -13z" />
        <path d="M5310 4920 c0 -12 21 -36 53 -61 28 -23 54 -45 55 -50 2 -5 8 -9 13 -9 22 0 -7 65 -45 101 -45 43 -76 50 -76 19z" />
        <path d="M5596 4931 c-13 -20 19 -104 46 -124 16 -12 28 -27 28 -34 0 -7 5 -13 11 -13 7 0 8 7 4 18 -4 9 -10 28 -13 42 -2 14 -10 32 -17 40 -8 8 -15 28 -17 45 -3 30 -30 46 -42 26z" />
        <path d="M6048 4928 c-8 -24 2 -269 11 -287 6 -10 7 -28 4 -41 -5 -20 -3 -22 15 -18 25 7 32 -1 37 -43 4 -32 21 -59 37 -59 18 0 27 44 13 66 -7 11 -16 56 -18 100 -3 43 -11 108 -17 144 -6 36 -13 84 -16 108 -5 38 -9 42 -34 42 -15 0 -30 -6 -32 -12z" />
        <path d="M6507 4919 c-15 -12 -24 -26 -20 -32 4 -6 7 -47 8 -91 l1 -81 44 -48 c39 -43 44 -53 41 -90 -1 -23 -7 -47 -13 -54 -5 -6 -8 -29 -6 -50 2 -31 7 -39 26 -41 24 -4 31 -32 7 -32 -8 0 -22 -11 -31 -26 -11 -15 -23 -23 -32 -19 -8 3 -24 -2 -34 -12 -19 -17 -21 -17 -38 5 -10 12 -21 28 -23 35 -9 20 -27 -15 -21 -38 4 -11 16 -27 27 -37 18 -14 20 -19 9 -42 -9 -21 -18 -26 -38 -24 -18 2 -31 -4 -41 -20 -15 -21 -14 -23 16 -33 26 -9 31 -16 31 -44 l0 -33 37 18 c30 14 40 27 54 71 10 30 18 60 18 67 1 20 53 61 78 62 24 0 53 -34 53 -63 0 -10 5 -15 10 -12 20 12 7 128 -23 210 -16 44 -30 94 -31 112 0 17 -4 35 -9 39 -4 4 -5 22 -1 39 4 23 0 35 -15 49 -15 13 -19 26 -15 43 5 17 0 31 -17 49 -20 21 -21 28 -11 44 16 26 16 100 0 100 -7 0 -25 -10 -41 -21z" />
        <path d="M888 4919 c-31 -12 -32 -16 -18 -54 8 -21 4 -35 -21 -80 -20 -36 -37 -55 -49 -55 -25 0 -33 -15 -21 -38 7 -14 20 -18 53 -16 39 1 45 5 65 40 12 22 27 61 33 89 6 27 18 57 26 66 37 41 -6 71 -68 48z" />
        <path d="M2240 4900 c0 -23 4 -30 20 -30 25 0 36 25 20 45 -21 25 -40 18 -40 -15z" />
        <path d="M2735 4910 c-4 -6 -1 -25 5 -41 11 -26 10 -32 -9 -53 -25 -27 -131 -82 -176 -92 -16 -4 -45 -17 -62 -31 -30 -22 -32 -27 -27 -67 4 -27 2 -46 -5 -50 -13 -8 -14 -26 -2 -45 10 -15 44 2 96 50 44 40 163 99 200 99 48 0 57 18 46 81 -22 125 -47 180 -66 149z" />
        <path d="M4960 4906 c0 -27 22 -75 37 -80 28 -11 32 4 10 49 -21 43 -47 60 -47 31z" />
        <path d="M7045 4910 c-4 -6 -9 -75 -11 -153 -3 -78 -7 -169 -10 -202 -2 -33 -6 -83 -8 -112 -3 -28 -9 -60 -15 -71 -6 -12 -11 -38 -11 -59 0 -21 -6 -47 -14 -58 -15 -23 -18 -72 -5 -97 6 -12 4 -20 -7 -26 -8 -5 -17 -19 -19 -33 -12 -75 -40 -179 -56 -211 -11 -21 -19 -53 -19 -71 0 -19 -6 -40 -14 -46 -7 -6 -16 -24 -19 -39 -3 -15 -17 -40 -30 -54 -22 -24 -23 -29 -10 -47 16 -24 38 -28 30 -6 -4 8 6 24 24 38 22 17 32 35 36 65 3 23 12 47 19 53 8 6 14 17 14 25 0 7 14 33 30 58 35 52 73 153 66 178 -2 10 2 22 10 29 8 6 14 26 14 44 0 20 9 42 25 59 30 32 30 35 8 51 -15 11 -14 16 6 59 26 52 44 232 29 275 -5 13 -9 58 -9 100 0 42 -1 117 -2 166 -2 84 -3 90 -24 93 -11 2 -24 -2 -28 -8z" />
        <path d="M11 4897 c-17 -21 -3 -27 59 -27 31 0 61 -5 67 -11 15 -15 58 -7 58 10 0 33 -160 57 -184 28z" />
        <path d="M600 4900 c0 -5 10 -10 23 -10 18 0 19 2 7 10 -19 13 -30 13 -30 0z" />
        <path d="M2987 4898 c-2 -7 0 -24 5 -37 6 -16 4 -28 -4 -39 -7 -8 -14 -34 -14 -56 -1 -23 -5 -60 -9 -84 l-8 -43 34 3 c26 2 34 8 34 23 0 17 8 20 53 23 47 3 67 -7 43 -23 -5 -3 -12 -18 -16 -34 -6 -30 -68 -86 -84 -77 -4 3 -6 17 -3 31 3 19 0 25 -13 25 -13 0 -16 -6 -13 -23 2 -13 -1 -29 -9 -35 -7 -7 -13 -24 -13 -37 0 -22 3 -24 30 -19 27 6 31 3 45 -29 8 -20 15 -47 15 -61 0 -14 10 -41 21 -61 14 -23 19 -45 16 -63 -9 -45 8 -64 51 -56 20 4 44 16 53 27 26 33 47 16 49 -40 2 -109 2 -126 -4 -156 -8 -42 -92 -135 -108 -119 -8 8 -17 8 -31 1 -10 -6 -31 -9 -45 -6 -14 3 -33 0 -42 -6 -25 -15 -102 20 -150 68 -32 33 -43 54 -60 120 -24 97 -25 113 -4 136 12 13 13 22 5 38 -6 11 -11 27 -11 35 0 24 52 46 93 39 29 -4 36 -2 42 16 3 11 15 21 25 21 25 0 33 15 20 40 -7 13 -21 20 -38 20 -35 0 -66 39 -75 94 -11 71 -56 87 -78 29 -5 -16 -25 -59 -44 -98 -32 -66 -34 -77 -35 -180 -2 -144 6 -196 44 -274 22 -46 41 -71 71 -89 90 -59 140 -79 207 -86 88 -8 153 17 200 78 17 22 44 55 59 71 20 21 32 50 42 100 17 84 23 310 9 319 -11 7 -48 -35 -57 -65 -15 -48 -108 -27 -144 33 -31 49 -35 97 -14 154 14 37 24 50 42 52 31 5 108 -17 122 -34 6 -8 24 -14 39 -14 22 0 39 -12 72 -52 39 -46 64 -81 90 -122 4 -6 15 -29 24 -51 10 -22 25 -51 35 -65 12 -18 16 -41 14 -87 -2 -60 10 -104 22 -75 3 7 10 17 17 22 75 60 71 54 58 97 -11 36 -84 184 -128 260 -10 17 -33 38 -51 47 -18 9 -33 22 -33 31 0 8 -4 15 -8 15 -5 0 -26 15 -48 34 -122 107 -146 123 -207 141 -34 10 -79 27 -99 37 -32 16 -38 23 -38 51 0 55 -10 77 -35 77 -13 0 -25 -6 -28 -12z m-107 -462 c0 -40 -14 -50 -44 -31 -32 21 -33 31 -3 55 26 21 47 10 47 -24z" />
        <path d="M4123 4893 c-30 -20 -29 -46 2 -99 22 -37 24 -46 13 -64 -18 -28 5 -43 52 -34 45 8 47 10 23 31 -18 16 -47 107 -42 129 4 13 -11 54 -19 53 -4 0 -17 -7 -29 -16z" />
        <path d="M4560 4886 c0 -30 37 -56 46 -32 10 26 -1 51 -24 54 -18 3 -22 -1 -22 -22z" />
        <path d="M470 4870 c0 -5 12 -10 26 -10 14 0 23 4 19 10 -3 6 -15 10 -26 10 -10 0 -19 -4 -19 -10z" />
        <path d="M4300 4870 c0 -5 9 -14 20 -20 11 -6 20 -17 20 -25 0 -8 11 -35 25 -61 14 -26 25 -53 25 -61 0 -15 39 -54 82 -80 21 -13 28 -26 30 -57 3 -38 5 -41 38 -46 28 -4 36 -10 38 -30 8 -57 102 -112 102 -59 0 20 -33 56 -97 106 -18 14 -33 34 -33 44 0 10 -9 23 -20 29 -11 6 -20 17 -20 24 0 21 -58 66 -86 66 -29 0 -32 16 -4 25 27 9 25 27 -5 55 -14 13 -25 28 -25 35 0 6 -14 23 -31 38 -31 27 -59 35 -59 17z" />
        <path d="M3281 4856 c-7 -9 -9 -29 -5 -55 6 -37 9 -41 36 -41 17 0 50 -13 75 -30 24 -16 48 -30 54 -30 5 0 9 -11 9 -25 0 -14 5 -25 11 -25 5 0 15 -13 20 -30 8 -22 17 -30 35 -30 28 0 28 0 10 45 -8 19 -22 35 -30 35 -8 0 -28 16 -43 35 -29 37 -84 75 -108 75 -17 0 -35 31 -35 59 0 26 -15 34 -29 17z" />
        <path d="M2225 4840 c-3 -11 -4 -29 0 -40 3 -10 1 -37 -6 -60 -17 -55 -1 -73 35 -37 23 23 25 31 20 79 -3 29 -7 59 -10 66 -6 19 -32 14 -39 -8z" />
        <path d="M5787 4849 c-26 -15 -12 -76 25 -110 18 -18 28 -37 28 -56 0 -18 9 -38 24 -52 33 -31 42 -11 16 36 -11 21 -20 49 -20 62 0 13 -8 29 -17 36 -11 8 -18 27 -18 51 0 40 -10 49 -38 33z" />
        <path d="M4584 4816 c-3 -8 -4 -29 -2 -48 3 -30 6 -33 38 -33 45 0 50 22 15 64 -29 34 -43 39 -51 17z" />
        <path d="M1397 4766 c-22 -33 -21 -46 3 -46 11 0 20 -4 20 -10 0 -5 -8 -10 -17 -10 -15 0 -14 -2 3 -15 21 -16 60 -20 68 -6 3 5 -6 21 -19 35 -14 15 -25 32 -25 39 0 7 -4 18 -9 25 -6 10 -12 7 -24 -12z" />
        <path d="M5034 4779 c-3 -6 -2 -15 4 -21 13 -13 32 -2 32 18 0 16 -26 19 -36 3z" />
        <path d="M4905 4743 c13 -38 35 -57 35 -29 0 28 -19 66 -34 66 -11 0 -12 -6 -1 -37z" />
        <path d="M5470 4739 c-25 -5 -121 -13 -214 -19 -93 -5 -174 -14 -179 -19 -7 -7 -6 -19 3 -36 11 -21 20 -25 60 -25 36 0 51 -5 67 -24 11 -13 36 -26 56 -30 43 -8 56 -40 28 -71 -10 -11 -27 -42 -37 -69 -21 -53 -37 -65 -65 -48 -25 16 -49 15 -49 -2 0 -19 27 -39 40 -31 6 4 33 -11 60 -34 27 -23 53 -41 59 -41 5 0 15 -16 20 -36 8 -29 6 -41 -10 -67 -10 -18 -19 -42 -19 -54 0 -12 -9 -27 -20 -33 -15 -8 -21 -6 -30 11 -8 15 -18 19 -33 15 -27 -7 -72 20 -87 52 -10 23 -13 24 -26 10 -14 -14 -14 -19 -1 -44 13 -26 13 -33 0 -57 -13 -26 -13 -31 2 -47 9 -9 39 -25 68 -34 48 -15 56 -15 99 0 41 14 49 21 64 60 11 30 15 58 11 88 -6 42 -5 45 23 55 17 5 30 15 30 20 0 13 47 15 55 2 3 -5 0 -13 -5 -16 -8 -5 -6 -13 5 -25 9 -10 14 -23 11 -29 -4 -5 -7 -42 -8 -82 -1 -62 -5 -79 -30 -115 -35 -53 -114 -104 -168 -109 -22 -3 -45 -7 -50 -10 -4 -3 -15 2 -24 10 -9 9 -45 29 -81 46 -36 16 -65 35 -65 43 0 7 -9 24 -21 37 -14 17 -19 32 -15 52 4 17 -1 41 -13 62 -15 28 -16 43 -9 82 5 26 9 65 8 86 0 21 6 52 14 68 17 33 7 79 -17 79 -25 0 -50 -59 -44 -105 5 -32 2 -46 -10 -56 -13 -11 -15 -31 -11 -119 5 -89 10 -115 35 -170 47 -102 152 -180 242 -180 80 0 147 24 210 76 50 40 66 62 100 134 23 47 41 95 41 106 0 11 3 24 8 28 4 4 7 40 8 79 0 40 4 86 7 102 5 22 2 39 -14 64 l-21 34 -40 -46 c-54 -63 -70 -71 -114 -55 -40 14 -79 74 -64 98 5 7 3 21 -3 31 -9 15 -6 26 19 61 35 50 67 59 126 32 29 -13 41 -15 50 -6 8 8 8 12 1 12 -5 0 -28 12 -49 27 -21 14 -61 31 -88 37 -59 13 -68 30 -25 45 66 23 143 8 267 -51 45 -22 93 -38 105 -37 35 3 57 -11 57 -37 0 -15 10 -29 30 -41 17 -9 30 -20 30 -24 0 -3 27 -29 60 -58 l59 -52 7 26 c9 36 -24 165 -49 193 -12 13 -32 22 -50 22 -18 0 -45 12 -69 31 -27 22 -43 28 -50 21 -6 -6 -6 -12 1 -16 14 -9 14 -36 1 -36 -15 0 -98 64 -156 121 -29 27 -56 49 -60 48 -5 -1 -29 -5 -54 -10z" />
        <path d="M1161 4679 c-22 -28 -41 -57 -41 -63 0 -6 -12 -29 -26 -50 -26 -37 -28 -65 -9 -109 6 -13 4 -16 -9 -11 -10 4 -25 -1 -37 -12 -19 -17 -19 -19 -3 -31 10 -7 26 -13 36 -13 21 0 24 -30 6 -48 -19 -19 -56 -14 -68 8 -14 25 -30 17 -30 -15 0 -22 4 -24 37 -22 31 2 40 -2 48 -20 5 -13 12 -23 15 -23 3 0 10 10 15 23 7 14 18 21 32 20 28 -3 81 63 64 80 -15 15 -14 68 3 119 26 80 38 209 20 215 -7 2 -30 -19 -53 -48z" />
        <path d="M4630 4686 c0 -19 22 -56 34 -56 19 0 26 20 14 43 -7 14 -48 25 -48 13z" />
        <path d="M4836 4641 c-38 -22 -48 -46 -15 -36 29 9 53 30 48 43 -2 5 -17 2 -33 -7z" />
        <path d="M4920 4590 c-36 -39 -75 -89 -87 -110 -12 -20 -38 -45 -58 -54 -32 -15 -35 -21 -35 -59 0 -25 -8 -54 -19 -71 -15 -23 -17 -34 -10 -49 8 -14 6 -32 -5 -67 -19 -57 -20 -90 -5 -90 21 0 49 21 49 38 0 26 39 122 61 150 10 14 19 33 19 42 0 57 102 226 144 238 30 10 82 36 88 46 12 18 9 24 -19 34 -16 5 -35 13 -44 16 -11 5 -34 -14 -79 -64z" />
        <path d="M795 4637 c-17 -13 -17 -14 3 -19 31 -8 38 -36 19 -72 -10 -18 -18 -60 -19 -101 -3 -59 0 -70 15 -73 14 -3 17 4 17 37 0 22 5 43 10 46 6 3 10 26 10 50 0 24 7 60 16 79 9 19 14 41 11 50 -8 20 -56 21 -82 3z" />
        <path d="M1765 4625 c-25 -11 -31 -20 -36 -54 -7 -54 2 -60 108 -78 30 -5 34 -10 52 -72 11 -36 26 -100 33 -141 l13 -75 33 2 c49 2 65 19 48 52 -7 14 -16 45 -19 68 -3 24 -14 62 -25 85 -23 49 -46 153 -37 168 3 5 1 19 -5 30 -9 17 -14 19 -26 9 -16 -13 -19 -45 -4 -54 13 -8 13 -52 0 -60 -5 -3 -16 2 -25 12 -54 62 -65 78 -65 94 0 25 -10 28 -45 14z" />
        <path d="M1383 4615 c-5 -15 22 -55 37 -55 4 0 2 16 -4 35 -12 38 -23 44 -33 20z" />
        <path d="M2212 4601 c-7 -4 -9 -17 -3 -36 4 -17 4 -45 -1 -63 -11 -39 -4 -53 42 -85 28 -19 34 -29 32 -52 -2 -18 5 -36 21 -54 28 -30 67 -109 67 -135 0 -9 9 -35 21 -57 15 -31 25 -40 42 -37 20 3 22 8 19 53 -2 27 -10 74 -18 105 -22 86 -19 111 23 159 42 50 38 70 -16 84 -27 6 -32 12 -27 28 3 10 9 28 12 39 11 34 -24 36 -78 6 -44 -25 -53 -27 -79 -16 -20 9 -29 19 -29 36 0 26 -11 36 -28 25z" />
        <path d="M7354 4595 c-4 -9 -1 -27 6 -40 10 -18 10 -28 2 -38 -8 -10 -6 -20 8 -42 11 -17 20 -40 20 -52 0 -12 8 -46 18 -75 38 -108 43 -129 37 -148 -3 -10 1 -29 9 -42 8 -13 20 -44 27 -71 6 -26 21 -55 33 -65 15 -12 22 -28 21 -52 0 -34 1 -35 40 -35 50 0 60 25 16 42 -29 11 -30 12 -24 65 5 51 4 56 -24 79 -37 31 -30 64 16 74 17 4 33 11 36 16 13 20 42 7 89 -37 36 -35 58 -48 83 -50 37 -3 71 -27 83 -59 6 -16 18 -21 58 -23 28 -1 62 -6 77 -12 30 -11 45 -6 45 16 0 8 -10 14 -25 14 -14 0 -39 13 -57 30 -17 17 -37 30 -44 30 -8 0 -31 15 -51 34 -21 18 -64 50 -95 70 -32 20 -58 41 -58 46 0 5 -10 12 -22 16 -24 7 -56 32 -152 117 -113 99 -126 116 -123 161 2 36 -1 41 -21 44 -13 2 -25 -3 -28 -13z" />
        <path d="M6462 4567 c-15 -16 -22 -36 -22 -65 0 -23 4 -42 8 -42 27 0 66 85 55 118 -7 18 -17 15 -41 -11z" />
        <path d="M1342 4567 c-22 -26 -25 -67 -7 -87 20 -22 17 -94 -7 -198 -16 -68 -13 -112 7 -112 15 0 45 -43 45 -65 0 -9 8 -18 18 -21 16 -5 72 -29 102 -44 8 -4 16 -19 18 -34 3 -20 9 -26 27 -26 29 0 35 23 18 70 -7 19 -12 43 -13 52 0 10 -16 22 -42 30 -37 13 -44 19 -49 49 -4 19 -16 52 -27 73 -15 31 -18 47 -11 70 19 67 6 222 -15 187 -4 -6 -19 -11 -33 -11 -19 0 -24 4 -19 16 21 55 15 84 -12 51z m53 -357 c0 -8 -10 -16 -22 -18 -22 -3 -32 16 -16 32 12 11 38 2 38 -14z" />
        <path d="M4733 4561 c-32 -16 -41 -39 -27 -75 8 -22 34 -2 34 27 0 11 7 29 17 39 22 25 14 28 -24 9z" />
        <path d="M3562 4528 c6 -18 28 -21 28 -4 0 9 -7 16 -16 16 -9 0 -14 -5 -12 -12z" />
        <path d="M4394 4519 c29 -23 47 -19 26 6 -7 8 -22 15 -33 15 -18 0 -17 -2 7 -21z" />
        <path d="M1700 4465 c-13 -16 -6 -65 10 -65 19 0 39 42 29 62 -12 22 -23 23 -39 3z" />
        <path d="M657 4453 c-12 -11 -8 -23 8 -23 8 0 15 7 15 15 0 16 -12 20 -23 8z" />
        <path d="M1520 4407 c-11 -22 -11 -35 -2 -61 7 -18 12 -47 12 -65 0 -19 4 -30 10 -26 11 7 12 117 1 155 l-8 25 -13 -28z" />
        <path d="M6049 4398 c-5 -9 -9 -32 -9 -50 0 -49 -20 -81 -57 -90 -25 -6 -34 -15 -38 -36 -12 -58 -39 -129 -62 -164 -26 -39 -25 -78 3 -78 25 0 104 71 125 111 10 21 19 56 19 77 0 47 25 73 72 75 31 2 33 0 36 -36 2 -21 -1 -44 -7 -51 -6 -7 -13 -46 -16 -87 -13 -203 -16 -243 -24 -258 -15 -28 -23 -99 -12 -105 12 -8 55 34 75 72 8 15 28 36 45 47 24 16 31 27 31 53 0 36 -15 43 -25 12 -7 -22 -39 -27 -51 -8 -15 24 -11 84 8 125 18 39 18 44 3 74 -14 25 -15 36 -5 53 6 12 11 37 11 56 1 61 -11 214 -17 219 -3 4 -26 6 -51 6 -32 0 -47 -4 -54 -17z" />
        <path d="M1677 4363 c-10 -10 -8 -71 2 -78 13 -7 31 27 31 59 0 24 -18 35 -33 19z" />
        <path d="M2950 4331 c0 -21 17 -31 38 -23 17 6 15 29 -4 36 -26 10 -34 7 -34 -13z" />
        <path d="M2186 4240 c-4 -55 -3 -106 1 -113 4 -6 11 -41 14 -77 4 -36 10 -81 13 -100 8 -44 -4 -64 -33 -55 -23 7 -90 135 -116 223 -22 73 -60 107 -67 60 -5 -33 8 -78 31 -102 10 -12 24 -39 31 -61 7 -22 17 -49 22 -61 6 -12 8 -32 6 -45 -2 -18 -9 -23 -26 -22 -30 4 -28 -13 2 -21 21 -5 25 -13 28 -58 2 -29 3 -55 1 -57 -5 -7 -138 63 -182 96 -25 19 -53 47 -63 64 -10 16 -23 27 -28 24 -17 -11 -11 -71 10 -97 21 -27 148 -108 169 -108 25 0 71 -31 115 -77 35 -38 46 -58 51 -95 7 -52 26 -85 43 -74 7 4 12 19 12 33 0 24 -6 51 -41 184 -11 44 -11 50 0 68 8 12 12 12 26 -2 9 -10 27 -17 41 -17 22 0 24 4 24 48 0 26 -7 66 -15 89 -11 31 -14 86 -14 210 1 142 -2 174 -17 206 -10 20 -21 37 -24 37 -4 0 -10 -45 -14 -100z m4 -430 c0 -5 -7 -10 -15 -10 -8 0 -15 5 -15 10 0 6 7 10 15 10 8 0 15 -4 15 -10z" />
        <path d="M4597 4334 c-9 -10 2 -24 19 -24 8 0 14 7 14 15 0 15 -21 21 -33 9z" />
        <path d="M945 4300 c-4 -6 -2 -17 4 -24 8 -9 4 -19 -14 -36 -29 -28 -34 -70 -7 -70 19 0 42 59 42 110 0 30 -13 40 -25 20z" />
        <path d="M1129 4283 c-1 -4 -2 -28 -3 -52 -1 -39 -4 -46 -26 -51 -22 -5 -19 -7 18 -13 24 -4 47 -5 52 -2 5 3 8 31 7 63 -2 51 -4 57 -24 60 -13 2 -24 0 -24 -5z" />
        <path d="M2897 4238 c-4 -25 0 -37 14 -50 10 -9 19 -28 19 -42 0 -20 8 -29 43 -44 23 -11 61 -22 84 -25 35 -4 45 -1 67 22 33 35 48 75 33 90 -17 17 -38 13 -64 -11 -20 -19 -27 -20 -43 -10 -12 7 -21 8 -25 2 -8 -13 -62 -13 -70 0 -3 5 5 15 19 22 14 6 26 14 26 18 0 12 -24 30 -41 30 -9 0 -22 7 -29 15 -19 23 -27 18 -33 -17z" />
        <path d="M6645 4231 c-3 -6 0 -29 6 -53 6 -24 17 -74 24 -113 7 -38 19 -87 26 -108 11 -34 11 -43 -7 -75 -10 -20 -29 -45 -41 -55 -13 -10 -23 -24 -23 -32 0 -14 -21 -25 -51 -25 -14 0 -19 -7 -19 -25 0 -32 -85 -100 -143 -115 -23 -6 -53 -17 -67 -24 -31 -17 -108 -27 -115 -15 -9 13 23 67 82 141 55 69 66 96 36 83 -35 -15 -61 -17 -68 -6 -9 15 -55 -53 -55 -82 0 -13 -6 -32 -14 -43 -8 -11 -17 -41 -21 -67 -4 -25 -13 -52 -21 -58 -8 -6 -21 -36 -30 -65 -8 -30 -19 -54 -22 -54 -8 0 -30 -74 -39 -130 -3 -19 -12 -43 -20 -52 -8 -9 -12 -21 -9 -26 3 -5 -1 -17 -8 -28 -10 -13 -11 -22 -3 -35 9 -14 7 -22 -6 -37 -9 -10 -17 -30 -17 -44 0 -14 -11 -50 -25 -80 -13 -29 -22 -61 -19 -71 3 -9 -3 -32 -14 -50 -11 -17 -32 -61 -47 -97 -15 -36 -35 -76 -45 -90 -9 -14 -25 -46 -36 -72 -10 -26 -26 -51 -35 -55 -9 -4 -38 -32 -64 -62 -26 -30 -80 -76 -121 -103 -40 -26 -75 -52 -78 -57 -4 -5 -21 -13 -39 -17 -17 -3 -47 -19 -65 -35 -21 -19 -44 -29 -64 -29 -17 0 -60 -13 -95 -30 -34 -16 -69 -30 -76 -30 -7 0 -28 -13 -47 -29 -20 -16 -66 -43 -103 -60 -38 -16 -85 -43 -105 -59 -44 -34 -99 -62 -122 -62 -10 0 -34 -13 -54 -29 -20 -16 -53 -32 -73 -36 -21 -4 -67 -22 -103 -41 -94 -48 -165 -79 -245 -104 -38 -13 -101 -35 -140 -49 -59 -22 -86 -26 -175 -26 l-105 0 -107 53 c-59 29 -120 63 -135 76 -30 26 -127 86 -196 124 -23 12 -69 40 -103 62 -33 22 -72 44 -85 50 -13 6 -42 23 -65 38 -96 64 -110 72 -120 72 -6 0 -21 11 -34 25 -13 14 -29 25 -35 25 -6 0 -24 13 -40 30 -16 17 -34 30 -40 30 -7 0 -22 9 -35 20 -13 11 -51 35 -84 54 -34 19 -70 44 -80 55 -11 12 -25 21 -32 21 -6 0 -32 16 -56 36 -38 33 -87 68 -137 99 -9 6 -33 25 -54 43 -34 29 -57 40 -57 26 0 -13 24 -48 46 -68 17 -15 28 -42 38 -89 10 -51 20 -72 40 -88 14 -11 26 -29 26 -40 0 -10 5 -19 10 -19 6 0 10 -5 10 -11 0 -6 13 -28 30 -49 17 -21 30 -43 30 -49 0 -6 10 -40 22 -77 15 -45 30 -72 50 -87 22 -16 28 -29 28 -59 0 -44 11 -48 34 -13 12 19 22 24 39 20 12 -3 61 6 109 19 72 21 92 24 113 14 20 -9 25 -18 25 -49 0 -31 4 -38 22 -41 31 -4 37 -38 8 -38 -14 0 -20 -5 -16 -12 3 -7 9 -21 12 -30 4 -10 14 -18 24 -18 22 0 46 -28 42 -50 -1 -9 6 -37 17 -63 15 -35 24 -44 38 -41 10 3 40 -4 67 -15 26 -12 56 -21 66 -21 10 0 21 -7 24 -15 3 -9 19 -21 36 -26 19 -7 30 -18 30 -30 0 -16 8 -19 58 -19 64 -1 90 -12 122 -53 19 -23 27 -27 55 -21 23 4 41 1 57 -10 12 -9 37 -16 54 -16 42 0 64 -9 64 -26 0 -10 14 -14 48 -14 36 0 54 -5 67 -20 10 -11 28 -20 39 -20 12 0 32 -7 45 -16 18 -13 28 -14 47 -5 34 15 55 14 94 -5 28 -15 40 -15 81 -5 37 10 51 10 67 0 16 -10 26 -10 44 -1 13 6 34 11 48 11 14 0 48 5 75 12 28 6 64 13 81 13 17 1 39 9 48 19 10 9 26 17 36 17 10 0 31 10 47 23 15 12 47 35 71 50 23 15 42 35 42 44 0 30 25 88 43 101 11 9 16 21 12 32 -7 21 20 80 36 80 5 0 15 13 20 29 11 30 38 45 99 55 41 7 56 -1 68 -33 5 -14 23 -28 46 -36 34 -12 40 -11 57 6 23 23 24 39 4 39 -9 0 -26 10 -38 23 -29 31 -99 78 -164 111 -29 14 -53 33 -53 41 0 18 38 45 63 45 11 0 35 14 54 30 20 18 45 30 62 30 15 0 46 13 67 28 21 15 59 38 84 50 25 13 56 29 70 37 32 19 54 19 70 0 10 -12 10 -19 2 -27 -7 -7 -12 -22 -12 -34 0 -12 -12 -34 -27 -49 -15 -15 -28 -32 -28 -38 -2 -22 -23 -63 -40 -77 -10 -9 -14 -22 -10 -37 3 -12 0 -31 -6 -42 -18 -28 -4 -51 31 -51 23 0 33 6 39 23 5 13 16 29 25 36 10 8 14 22 10 36 -3 13 -1 26 5 29 6 4 11 25 11 47 0 35 4 42 35 60 27 16 35 27 35 50 0 34 24 40 40 10 8 -15 20 -19 55 -18 43 2 59 17 35 32 -6 4 -4 17 6 36 8 17 12 38 9 48 -3 10 -1 38 4 61 8 34 25 58 85 118 42 41 76 81 76 89 0 7 6 16 14 19 27 10 136 196 136 232 0 19 44 118 63 141 7 8 13 24 14 35 9 92 43 127 150 161 72 23 132 62 133 88 0 12 -35 8 -56 -8 -10 -8 -26 -15 -35 -15 -9 0 -36 -9 -60 -20 -24 -11 -56 -20 -72 -20 -25 0 -27 3 -21 28 4 15 17 49 30 75 13 27 24 66 24 87 0 28 5 42 19 49 10 6 24 24 31 41 18 44 94 95 196 131 49 17 101 41 115 53 15 11 41 29 58 38 22 12 31 24 31 42 0 18 9 30 28 40 15 8 38 28 52 45 16 20 34 31 50 31 24 0 25 2 22 53 -1 28 3 71 9 94 10 37 9 45 -11 73 -15 21 -20 40 -17 58 4 18 -5 48 -25 90 -30 61 -41 72 -53 53z m-3865 -1876 c41 -29 119 -79 173 -110 57 -34 97 -64 97 -73 0 -31 -31 -52 -77 -52 -24 0 -59 -6 -78 -14 -19 -8 -60 -14 -90 -13 -53 2 -67 9 -45 22 16 10 12 32 -9 52 -10 10 -21 29 -24 43 -19 87 -69 160 -104 152 -7 -2 -13 4 -13 13 0 9 6 15 12 13 7 -3 24 1 38 9 14 7 30 13 35 12 6 0 44 -24 85 -54z m497 -315 c86 -73 187 -143 228 -159 23 -9 61 -32 85 -52 25 -21 63 -44 85 -53 22 -10 49 -25 60 -35 11 -10 43 -25 70 -34 28 -9 75 -25 105 -36 68 -25 168 -27 247 -5 32 9 78 20 103 26 25 6 52 16 60 23 8 7 38 18 65 24 28 7 74 25 102 42 29 16 59 29 66 29 16 0 285 134 301 150 15 15 46 12 52 -5 3 -8 -4 -26 -15 -41 -21 -27 -27 -59 -13 -68 5 -3 -15 -53 -44 -111 -42 -86 -51 -113 -47 -140 5 -31 3 -36 -23 -45 -16 -6 -59 -26 -95 -45 -37 -19 -82 -35 -100 -35 -20 0 -42 -9 -56 -22 -20 -19 -26 -20 -47 -9 -18 10 -39 11 -94 2 -115 -18 -164 -14 -247 19 -42 16 -86 30 -99 30 -12 0 -49 9 -82 21 -32 11 -86 29 -119 39 -90 28 -168 58 -174 69 -4 5 -24 16 -46 24 -22 8 -58 22 -80 30 -22 8 -59 21 -82 28 -24 6 -50 20 -59 30 -9 10 -33 21 -53 25 -20 3 -60 20 -89 38 -51 30 -53 33 -47 64 4 20 1 39 -6 48 -7 8 -9 29 -6 49 4 23 0 45 -10 64 -41 70 29 84 104 21z" />
        <path d="M7234 4175 c-3 -14 -3 -50 1 -81 6 -54 -1 -108 -30 -204 -7 -25 -16 -71 -19 -103 -5 -44 -15 -70 -41 -109 -19 -27 -35 -62 -35 -77 0 -14 -10 -46 -22 -71 -12 -25 -25 -54 -28 -65 -4 -11 -19 -46 -34 -77 -14 -31 -26 -59 -26 -62 0 -2 -17 -31 -39 -63 -26 -40 -41 -75 -46 -111 -4 -32 -15 -60 -26 -71 -39 -36 -110 -201 -86 -201 24 1 53 36 67 80 18 58 39 90 57 90 8 0 31 16 50 35 31 31 34 39 28 71 -4 25 -2 41 8 53 9 9 23 42 32 74 9 31 21 57 26 57 22 0 58 48 52 69 -5 21 23 92 40 99 4 2 7 8 7 14 0 6 11 26 25 44 14 19 25 46 25 64 0 21 9 39 26 55 21 19 25 30 20 51 -8 31 5 44 47 44 16 0 26 4 22 10 -3 6 -21 10 -40 10 -53 0 -59 36 -9 58 13 7 24 18 24 27 0 8 7 15 16 15 8 0 12 -4 9 -10 -3 -5 5 -21 19 -35 32 -32 46 -58 46 -84 0 -30 15 -26 39 11 20 32 20 33 1 54 -11 11 -20 24 -20 29 0 5 -14 40 -31 79 -63 141 -69 156 -69 163 0 4 -9 26 -21 50 -24 50 -55 58 -65 18z" />
        <path d="M1642 4138 l3 -53 37 -3 c33 -3 37 -1 31 15 -3 10 -12 25 -18 33 -7 8 -15 24 -17 35 -2 11 -11 21 -21 23 -16 3 -18 -3 -15 -50z" />
        <path d="M843 4139 c-18 -18 -3 -39 28 -39 22 0 29 5 29 19 0 28 -37 40 -57 20z" />
        <path d="M1896 4131 c-10 -11 -15 -24 -12 -30 4 -6 2 -20 -4 -30 -9 -18 -5 -23 29 -41 22 -11 43 -30 46 -42 9 -29 65 -89 77 -82 18 11 6 39 -32 71 -22 19 -40 42 -40 50 0 9 -8 25 -17 35 -9 11 -17 35 -17 53 0 40 -6 43 -30 16z" />
        <path d="M6329 4095 c-15 -8 -30 -27 -33 -41 -4 -15 -16 -39 -27 -52 -10 -14 -19 -31 -19 -39 0 -23 35 -10 38 14 2 12 15 29 28 38 24 16 26 15 31 -4 3 -12 9 -21 13 -21 14 0 38 36 45 67 5 26 2 34 -14 42 -25 14 -30 13 -62 -4z" />
        <path d="M1040 4084 c0 -17 22 -14 28 4 2 7 -3 12 -12 12 -9 0 -16 -7 -16 -16z" />
        <path d="M1730 4014 c0 -9 9 -27 20 -41 11 -14 20 -32 20 -40 0 -21 24 -10 29 12 2 10 -3 23 -11 29 -9 6 -18 21 -22 34 -8 25 -36 30 -36 6z" />
        <path d="M6445 3979 c-4 -5 -4 -22 0 -37 6 -26 7 -26 21 -8 8 11 14 28 14 38 0 19 -25 25 -35 7z" />
        <path d="M1562 3940 c-6 -16 -8 -45 -5 -64 3 -19 0 -49 -6 -67 l-11 -32 35 6 c31 5 36 3 41 -18 3 -13 3 -29 -1 -35 -6 -10 0 -14 48 -24 35 -8 45 -31 23 -55 -15 -16 -14 -20 14 -47 18 -17 30 -40 30 -56 0 -14 8 -40 17 -57 14 -23 23 -29 40 -25 15 4 25 0 32 -14 15 -28 14 -42 -3 -42 -20 0 -31 -19 -17 -33 7 -7 16 -5 31 8 26 23 70 11 85 -23 6 -13 19 -22 31 -22 38 0 39 -49 2 -50 -15 0 -8 -37 11 -54 18 -16 18 -18 0 -54 -21 -40 -25 -77 -9 -87 15 -9 12 -68 -5 -109 -11 -25 -22 -36 -36 -36 -18 0 -19 -3 -9 -15 6 -8 9 -23 5 -35 -3 -11 -3 -29 0 -41 l7 -21 24 23 c13 12 24 32 24 44 0 12 7 30 15 41 8 10 15 28 15 40 0 11 14 30 31 43 25 19 30 29 28 59 -1 20 2 62 6 92 5 30 9 87 9 125 l1 70 32 3 c39 4 82 -24 83 -53 0 -11 8 -33 17 -50 11 -21 16 -56 16 -120 1 -82 -2 -95 -33 -155 -18 -36 -41 -71 -51 -78 -11 -7 -19 -18 -19 -23 0 -6 -9 -22 -20 -36 -31 -40 -26 -52 22 -50 42 2 43 1 58 -42 12 -35 12 -45 3 -48 -7 -3 -13 -11 -13 -19 0 -11 8 -14 28 -12 24 3 27 7 28 43 0 42 23 115 35 115 11 0 20 -48 13 -74 -4 -17 -1 -27 11 -33 25 -14 16 -57 -12 -61 -31 -5 -29 -28 7 -69 35 -39 36 -46 13 -121 -19 -65 -18 -77 8 -110 10 -14 19 -36 19 -49 0 -15 10 -33 24 -44 19 -15 25 -29 24 -60 0 -22 5 -46 11 -52 6 -6 11 -21 11 -33 0 -31 25 -50 46 -34 8 8 32 16 52 19 l37 7 -45 24 c-33 19 -46 33 -50 55 -4 17 -16 48 -28 70 -12 25 -20 60 -20 89 0 26 -5 60 -10 74 -15 40 -31 173 -25 204 6 30 38 47 56 29 6 -6 15 -11 19 -11 14 0 9 37 -7 50 -8 7 -15 19 -15 27 0 8 -11 28 -25 45 -14 16 -25 37 -25 46 0 9 -9 28 -20 42 -13 16 -20 41 -20 70 0 25 -7 72 -15 103 -8 32 -15 71 -15 86 0 15 -3 31 -7 35 -4 4 -8 33 -9 64 -2 82 -19 181 -32 194 -9 9 -16 8 -29 -4 -35 -30 -64 -29 -153 8 -47 20 -103 45 -125 56 -45 24 -105 77 -105 94 0 6 -16 33 -35 60 -19 27 -35 57 -35 67 0 9 -11 22 -24 28 -18 8 -24 19 -24 39 1 15 -11 49 -26 75 -14 26 -26 56 -26 66 0 18 -35 49 -56 49 -7 0 -17 -13 -22 -30z" />
        <path d="M1466 3938 c-3 -14 1 -29 9 -38 13 -13 15 -10 15 23 0 41 -14 50 -24 15z" />
        <path d="M6312 3898 c-7 -7 -12 -21 -12 -32 1 -20 1 -20 20 3 29 34 22 59 -8 29z" />
        <path d="M6408 3879 c-21 -12 -24 -39 -5 -39 14 0 47 31 47 43 0 10 -22 8 -42 -4z" />
        <path d="M1380 3873 c0 -5 6 -18 14 -29 17 -22 35 -11 20 13 -12 19 -34 29 -34 16z" />
        <path d="M1497 3873 c-12 -12 -7 -33 8 -33 17 0 19 9 7 28 -5 7 -11 9 -15 5z" />
        <path d="M3877 3853 c-4 -3 -7 -15 -7 -26 0 -16 3 -17 15 -7 8 7 15 19 15 26 0 15 -12 19 -23 7z" />
        <path d="M4065 3800 c-15 -17 -16 -20 -3 -20 19 0 42 26 30 34 -5 3 -17 -3 -27 -14z" />
        <path d="M3315 3732 c-52 -32 -168 -71 -230 -78 -43 -4 -76 -1 -115 10 -29 9 -65 16 -79 16 -14 0 -46 14 -71 30 -66 44 -136 39 -111 -7 12 -24 196 -91 285 -104 75 -12 206 3 229 26 7 6 37 19 67 29 66 21 115 63 99 83 -15 18 -38 16 -74 -5z" />
        <path d="M5604 3726 c-18 -8 -35 -19 -39 -25 -9 -16 -161 -88 -215 -102 -73 -18 -209 -3 -285 32 -35 16 -71 29 -80 29 -9 0 -25 4 -35 10 -26 14 -52 2 -48 -24 5 -32 65 -57 258 -104 73 -19 168 -21 202 -5 67 31 100 43 116 43 9 0 28 9 42 20 14 11 30 20 36 20 5 0 15 5 22 12 6 6 32 19 58 27 51 18 71 39 61 65 -8 20 -50 20 -93 2z" />
        <path d="M7477 3723 c-14 -13 -7 -42 8 -37 8 4 15 15 15 25 0 19 -11 25 -23 12z" />
        <path d="M560 3670 c-7 -4 -9 -13 -6 -19 4 -6 -3 -20 -16 -31 l-23 -19 33 -1 c25 0 32 4 32 20 0 11 5 20 10 20 15 0 12 27 -3 33 -8 3 -20 2 -27 -3z" />
        <path d="M1410 3671 c0 -18 22 -22 65 -12 37 8 38 9 10 10 -16 1 -40 4 -52 7 -14 4 -23 2 -23 -5z" />
        <path d="M6720 3652 c0 -16 -79 -112 -205 -247 -25 -27 -51 -61 -56 -75 -6 -14 -30 -41 -54 -60 -24 -19 -44 -39 -44 -43 -1 -12 61 3 79 19 10 9 20 10 30 3 12 -7 11 -10 -8 -15 -13 -4 -25 -17 -29 -33 -7 -29 -85 -152 -109 -172 -10 -8 -13 -21 -9 -41 6 -25 4 -28 -18 -28 -28 0 -107 -79 -107 -106 0 -9 -14 -33 -31 -53 -63 -75 -139 -174 -139 -181 0 -5 -15 -26 -32 -49 -68 -85 -77 -98 -84 -127 -4 -16 -20 -44 -36 -62 -17 -20 -28 -44 -28 -62 0 -24 -4 -30 -21 -30 -19 0 -20 -4 -14 -40 5 -32 3 -41 -9 -46 -18 -7 -21 -30 -5 -40 6 -3 16 -1 22 5 6 6 19 11 29 11 10 0 18 5 18 10 0 6 -4 10 -10 10 -5 0 -10 18 -10 40 0 34 4 42 27 53 57 25 149 145 139 180 -3 11 2 33 11 48 13 23 22 26 47 23 27 -4 34 0 54 30 12 20 22 45 22 56 0 15 7 20 28 20 15 0 34 4 42 10 12 7 12 12 -4 28 -16 19 -16 22 -2 51 9 16 32 42 51 57 25 19 35 34 35 54 0 36 23 56 40 35 13 -16 70 -21 70 -6 0 5 -13 11 -30 15 -16 3 -30 10 -30 15 0 6 14 38 31 71 24 48 37 62 58 66 27 6 28 8 23 55 -4 45 -3 49 18 49 14 0 24 -8 27 -20 7 -26 29 -20 25 6 -2 10 -5 33 -5 49 -2 27 1 30 27 29 41 0 80 38 72 70 -8 32 23 72 49 63 14 -6 15 -10 5 -22 -7 -8 -14 -47 -16 -85 -2 -38 -7 -78 -12 -87 -15 -30 -24 -204 -11 -219 16 -19 29 -17 29 4 0 10 8 29 17 42 11 16 17 44 18 81 0 41 5 63 18 77 13 14 17 32 15 58 -3 34 -6 39 -28 39 -16 0 -26 6 -28 19 -3 15 1 18 22 14 33 -7 41 7 51 82 6 52 18 99 36 147 5 14 4 25 -4 31 -22 19 -40 98 -27 121 9 18 8 21 -10 21 -13 0 -20 -7 -20 -18z" />
        <path d="M10 3640 c-8 -5 -12 -12 -8 -15 8 -8 58 5 58 16 0 12 -31 11 -50 -1z" />
        <path d="M233 3643 c-51 -6 -39 -23 16 -23 56 0 84 8 75 21 -5 9 -30 9 -91 2z" />
        <path d="M1434 3615 c-9 -23 10 -40 25 -22 9 11 8 17 -4 27 -12 10 -16 9 -21 -5z" />
        <path d="M375 3610 c-8 -13 20 -24 36 -15 8 6 7 10 -2 16 -18 11 -26 11 -34 -1z" />
        <path d="M3665 3600 c28 -12 55 -12 55 0 0 6 -17 10 -37 9 -31 0 -34 -2 -18 -9z" />
        <path d="M3907 3593 c-11 -10 -8 -61 3 -68 15 -10 -26 -81 -62 -108 -18 -14 -48 -32 -65 -41 -25 -13 -33 -23 -33 -44 0 -33 30 -101 65 -146 14 -18 33 -57 43 -87 22 -64 45 -83 66 -54 23 32 29 96 11 138 -8 20 -15 45 -15 56 0 11 -8 36 -17 56 -16 33 -16 37 0 64 9 16 17 36 17 44 0 9 9 32 21 52 16 27 19 38 10 49 -7 9 -8 17 -3 20 17 10 24 58 10 67 -16 10 -42 11 -51 2z" />
        <path d="M1427 3494 c-13 -14 5 -24 31 -18 44 10 50 24 11 24 -20 0 -39 -3 -42 -6z" />
        <path d="M526 3431 c-3 -5 1 -15 10 -22 13 -10 17 -10 24 1 5 8 6 18 4 22 -7 11 -31 10 -38 -1z" />
        <path d="M1472 3403 c-6 -3 -10 -9 -6 -14 7 -12 44 -12 44 0 0 11 -21 19 -38 14z" />
        <path d="M538 3356 c-6 -15 -8 -29 -5 -32 12 -12 37 5 37 25 0 31 -19 35 -32 7z" />
        <path d="M2835 3309 c-4 -6 -4 -13 -1 -16 8 -8 36 5 36 17 0 13 -27 13 -35 -1z" />
        <path d="M1420 3190 c-19 -12 -2 -63 22 -68 22 -4 35 42 18 63 -14 17 -20 18 -40 5z" />
        <path d="M2817 3024 c-4 -4 -7 -11 -7 -16 0 -13 50 -6 53 7 2 12 -36 19 -46 9z" />
        <path d="M517 2948 c-21 -11 -22 -47 -2 -54 19 -8 45 13 45 36 0 22 -21 31 -43 18z" />
        <path d="M5475 2950 c-8 -13 20 -24 42 -16 15 6 15 8 3 16 -20 13 -37 12 -45 0z" />
        <path d="M1380 2899 c0 -11 5 -17 10 -14 6 3 10 13 10 21 0 8 -4 14 -10 14 -5 0 -10 -9 -10 -21z" />
        <path d="M2015 2790 c-3 -5 1 -10 9 -10 8 0 18 5 21 10 3 6 -1 10 -9 10 -8 0 -18 -4 -21 -10z" />
        <path d="M1377 2774 c-10 -10 12 -44 28 -44 18 0 19 10 1 33 -14 18 -19 20 -29 11z" />
        <path d="M3297 2706 c-4 -10 -5 -21 -2 -24 9 -9 17 6 13 25 -3 17 -4 17 -11 -1z" />
        <path d="M2179 2590 c-11 -7 -10 -10 4 -16 10 -4 23 -2 28 3 14 14 -13 24 -32 13z" />
        <path d="M483 2551 c-13 -11 -23 -23 -23 -29 0 -11 120 -25 142 -17 8 3 31 -1 51 -10 20 -8 65 -15 99 -15 35 0 91 -6 125 -13 61 -13 63 -13 84 9 17 18 19 25 8 28 -12 4 -146 13 -309 20 -52 2 -93 13 -132 36 -22 12 -19 13 -45 -9z" />
        <path d="M0 2543 c0 -17 9 -22 53 -28 129 -18 200 -14 184 12 -4 6 -44 13 -90 16 -46 4 -98 10 -115 13 -27 6 -32 4 -32 -13z" />
        <path d="M1069 2502 c-9 -4 -28 -21 -42 -38 -26 -31 -26 -32 -7 -49 23 -21 40 -12 40 21 0 32 22 40 68 25 27 -9 60 -10 125 -3 51 6 103 6 125 1 40 -9 102 -2 102 12 0 5 -9 9 -20 9 -12 0 -32 7 -46 17 -23 15 -28 15 -60 0 -39 -19 -71 -21 -106 -8 -33 12 -160 22 -179 13z" />
        <path d="M1561 2472 c-6 -2 -9 -8 -5 -13 7 -12 84 -12 84 1 0 6 -3 10 -7 11 -35 4 -63 4 -72 1z" />
        <path d="M1691 2452 l-23 -25 47 6 c55 8 65 13 65 33 0 25 -62 15 -89 -14z" />
        <path d="M3874 2450 c-54 -6 -104 -32 -104 -55 0 -19 32 -27 64 -15 15 5 49 10 77 10 42 0 59 -7 116 -46 49 -33 72 -44 90 -39 32 8 29 25 -9 62 -59 56 -157 91 -234 83z" />
        <path d="M5190 2440 c0 -5 7 -10 15 -10 8 0 18 0 22 -1 4 0 9 4 11 10 2 6 -8 11 -22 11 -14 0 -26 -4 -26 -10z" />
        <path d="M4475 2400 c3 -5 12 -10 20 -10 8 0 17 5 20 10 4 6 -5 10 -20 10 -15 0 -24 -4 -20 -10z" />
        <path d="M2522 2313 c2 -20 9 -28 23 -28 14 0 21 8 23 28 3 23 0 27 -23 27 -23 0 -26 -4 -23 -27z" />
        <path d="M1410 2296 c-10 -13 -9 -17 4 -22 22 -8 49 3 44 19 -7 18 -33 20 -48 3z" />
        <path d="M1602 2228 c5 -15 37 -18 41 -3 1 6 -9 12 -22 13 -16 3 -22 -1 -19 -10z" />
        <path d="M1430 2196 c0 -8 5 -18 10 -21 6 -3 10 3 10 14 0 12 -4 21 -10 21 -5 0 -10 -6 -10 -14z" />
        <path d="M2752 1928 c-19 -19 -14 -48 8 -48 15 0 20 7 20 24 0 30 -12 40 -28 24z" />
        <path d="M2390 1860 c0 -16 5 -30 10 -30 6 0 10 14 10 30 0 17 -4 30 -10 30 -5 0 -10 -13 -10 -30z" />
        <path d="M2755 1811 c-7 -12 12 -24 25 -16 11 7 4 25 -10 25 -5 0 -11 -4 -15 -9z" />
        <path d="M2330 1780 c-35 -6 -35 -7 -9 -14 35 -10 81 -4 87 12 4 13 -20 14 -78 2z" />
        <path d="M2747 1732 c-10 -10 -17 -26 -17 -34 0 -20 -21 -28 -50 -21 -16 4 -29 -3 -51 -27 -23 -25 -35 -31 -52 -25 -37 11 -50 11 -54 -1 -2 -6 6 -14 19 -17 22 -6 22 -7 -13 -39 -20 -18 -38 -39 -40 -47 -8 -24 -59 -5 -59 22 0 23 -17 47 -32 47 -4 0 -8 -7 -8 -15 0 -8 -16 -27 -35 -42 -19 -15 -35 -36 -35 -45 0 -14 -8 -18 -37 -18 -24 0 -45 -8 -61 -22 -19 -19 -33 -23 -78 -21 -52 3 -54 2 -54 -23 0 -16 -5 -24 -12 -21 -8 2 -12 17 -11 35 2 24 -2 31 -21 36 -30 7 -95 -31 -96 -56 -1 -47 -42 -78 -108 -80 -20 -1 -47 -8 -59 -15 -19 -13 -26 -13 -52 3 -29 17 -30 17 -61 -9 -17 -15 -41 -27 -52 -27 -11 0 -36 -9 -54 -21 -19 -11 -38 -18 -43 -14 -6 3 -31 -4 -56 -16 -25 -12 -49 -18 -53 -14 -4 4 -1 10 6 12 13 5 17 33 4 33 -11 0 -75 -47 -89 -66 -9 -12 -30 -17 -80 -17 -53 0 -71 -4 -80 -18 -7 -9 -31 -20 -53 -24 -22 -4 -42 -11 -46 -16 -3 -5 -19 -9 -37 -9 -22 0 -38 -8 -53 -27 -20 -25 -23 -26 -52 -14 -18 7 -39 10 -49 7 -15 -6 -15 -8 -1 -23 15 -14 12 -19 -29 -50 -43 -33 -49 -35 -99 -28 -52 6 -54 6 -54 -17 0 -13 5 -29 11 -35 8 -8 4 -16 -15 -28 -14 -10 -26 -23 -26 -30 0 -7 -14 -25 -30 -38 -17 -14 -30 -32 -30 -41 0 -19 -17 -30 -25 -16 -7 12 -75 13 -93 1 -9 -5 0 -10 28 -14 54 -7 58 -12 33 -40 -12 -12 -23 -33 -25 -47 -2 -19 -8 -24 -24 -23 -22 2 -44 -31 -44 -66 0 -10 -9 -28 -19 -40 -10 -12 -24 -35 -31 -52 -10 -22 -18 -29 -32 -26 -19 5 -48 -35 -48 -69 0 -27 -40 -83 -71 -99 -16 -9 -29 -22 -29 -29 0 -7 -7 -19 -15 -26 -11 -9 -12 -16 -4 -26 8 -9 5 -21 -13 -44 -31 -43 -70 -63 -101 -51 -36 14 -96 -16 -97 -48 0 -21 3 -23 31 -17 16 3 61 0 99 -6 63 -11 71 -10 90 7 11 10 20 27 20 37 0 25 54 130 76 148 9 8 28 32 43 54 14 21 46 69 71 106 111 167 148 219 197 278 29 35 53 69 53 76 0 8 12 22 27 31 34 21 83 66 83 75 0 4 -10 18 -23 32 l-22 24 45 0 c29 0 61 8 86 22 106 60 253 120 344 142 19 4 63 20 97 34 35 14 75 26 90 26 16 1 46 8 68 16 22 9 60 20 85 24 25 5 72 16 105 25 33 9 116 29 185 44 69 16 145 36 170 45 25 10 73 23 108 31 60 13 112 34 192 75 20 10 63 23 95 29 55 10 66 17 135 85 128 125 227 167 263 114 25 -38 57 -68 72 -68 19 0 19 17 0 36 -8 9 -15 26 -15 40 0 17 -10 29 -39 43 -25 13 -43 31 -49 51 -13 35 -14 36 -35 12z" />
        <path d="M1765 1710 c-3 -5 -15 -10 -26 -10 -10 0 -19 -4 -19 -10 0 -17 26 -11 45 10 10 11 15 20 12 20 -3 0 -9 -4 -12 -10z" />
        <path d="M2365 1660 c-3 -5 0 -13 9 -16 21 -8 61 -1 61 11 0 14 -62 19 -70 5z" />
        <path d="M5270 1565 c-12 -32 -6 -45 21 -45 21 0 89 -67 89 -88 0 -7 7 -15 15 -19 9 -3 22 -18 30 -33 16 -32 79 -110 122 -153 15 -15 63 -45 105 -67 42 -21 85 -43 95 -48 10 -6 44 -22 76 -36 31 -15 72 -39 90 -55 17 -15 58 -40 90 -54 36 -16 60 -34 66 -49 6 -16 23 -27 55 -37 25 -7 71 -28 102 -47 31 -19 63 -34 70 -34 8 0 22 -9 32 -21 9 -11 36 -30 60 -41 23 -11 42 -24 42 -30 0 -5 26 -21 58 -35 31 -14 60 -29 63 -34 6 -10 42 -36 154 -112 28 -19 78 -64 112 -100 34 -37 69 -67 77 -67 8 0 17 -14 21 -33 6 -29 17 -55 61 -152 7 -16 15 -50 16 -75 3 -37 7 -47 28 -55 16 -7 363 -9 1003 -7 l977 3 0 34 0 35 -287 1 c-159 0 -358 1 -443 1 -85 1 -195 0 -243 -1 -70 -3 -91 0 -105 13 -16 14 -21 14 -39 1 -16 -11 -69 -14 -269 -14 -228 -1 -399 2 -497 7 -34 2 -37 4 -31 26 5 20 2 25 -18 28 -20 3 -23 9 -26 56 -3 49 -6 55 -43 80 -36 24 -39 30 -36 62 3 25 -2 45 -19 70 -13 19 -24 40 -24 47 0 19 -17 16 -29 -4 -11 -20 -27 -10 -33 22 -2 11 -14 25 -28 32 -15 7 -27 24 -30 40 -5 26 -8 28 -48 25 -27 -3 -42 0 -42 8 0 17 -39 65 -53 65 -16 1 -58 24 -82 45 -11 10 -32 20 -47 24 -18 4 -28 13 -28 24 0 34 -93 94 -119 77 -10 -6 -20 11 -35 59 -6 17 -8 18 -24 2 -25 -22 -31 -21 -69 16 -24 23 -44 33 -69 34 -22 0 -44 9 -57 23 -21 21 -21 23 -4 32 27 16 11 29 -24 19 -31 -9 -34 -6 -53 53 -6 18 -41 23 -51 7 -10 -17 -32 -11 -38 10 -3 13 -14 20 -29 21 -38 1 -131 52 -145 79 -11 22 -19 25 -64 25 -54 0 -77 18 -39 30 19 6 19 8 -9 36 -23 22 -40 29 -78 32 -54 3 -70 27 -36 53 16 14 14 14 -24 9 -49 -8 -56 6 -26 51 14 22 14 27 1 40 -11 11 -21 12 -39 5 -21 -8 -29 -4 -59 30 -20 23 -43 39 -56 39 -12 0 -33 9 -48 21 l-26 20 -10 -26z" />
        <path d="M2085 1541 c-3 -5 -1 -12 5 -16 12 -7 30 2 30 16 0 12 -27 12 -35 0z" />
        <path d="M1667 1498 c-6 -20 4 -48 18 -48 18 0 27 30 14 46 -14 17 -26 18 -32 2z" />
        <path d="M2802 1490 c-7 -11 -19 -20 -27 -20 -8 0 -22 -12 -32 -27 -22 -37 -47 -61 -115 -111 -31 -23 -60 -47 -65 -54 -14 -22 -11 -115 11 -295 2 -13 9 -29 15 -37 10 -11 7 -17 -10 -30 -13 -8 -21 -17 -18 -19 2 -1 17 -9 32 -17 36 -18 121 -99 144 -138 10 -16 54 -62 98 -102 44 -40 86 -84 94 -99 8 -14 20 -30 28 -35 8 -4 22 -17 32 -28 9 -11 34 -39 56 -63 22 -24 60 -66 85 -95 25 -28 63 -70 86 -93 22 -23 53 -61 67 -84 15 -24 31 -43 36 -43 6 0 13 -9 16 -20 3 -11 15 -25 27 -31 22 -12 1729 -16 1748 -4 5 3 10 23 10 43 0 37 15 89 37 127 6 11 15 54 18 95 4 41 15 89 23 105 8 17 16 44 17 60 6 87 32 240 45 260 4 6 15 32 24 58 22 58 14 70 -40 65 -33 -3 -40 -7 -42 -28 -2 -14 -8 -29 -13 -35 -5 -5 -9 -24 -9 -42 0 -24 -8 -41 -27 -59 l-27 -25 29 -24 30 -23 -24 -26 c-19 -21 -22 -31 -17 -61 6 -31 2 -44 -20 -79 -28 -41 -36 -90 -34 -207 0 -21 -6 -42 -15 -49 -9 -7 -13 -20 -10 -29 7 -23 -30 -43 -100 -54 -33 -5 -197 -11 -365 -13 -168 -3 -336 -5 -375 -6 -38 0 -96 5 -128 11 -45 10 -71 10 -115 0 -31 -6 -88 -11 -127 -9 -128 4 -210 3 -255 -5 -35 -5 -57 -2 -100 14 -30 12 -69 21 -86 21 -16 0 -39 6 -49 14 -17 12 -17 16 -5 31 12 14 10 19 -12 38 -13 12 -33 35 -42 50 -9 15 -25 31 -35 35 -23 9 -111 106 -111 122 0 7 8 19 18 26 15 12 11 13 -29 14 -48 0 -69 13 -69 42 0 11 -13 23 -33 32 -24 9 -40 27 -54 58 -14 28 -46 64 -92 103 -39 32 -71 62 -71 66 0 4 -18 25 -41 48 -36 38 -49 79 -23 74 5 -1 16 -3 24 -5 9 -2 16 6 18 21 5 35 -12 46 -39 27 -29 -20 -59 -21 -59 -1 0 8 -8 19 -18 24 -14 7 -19 22 -20 60 0 28 -8 61 -16 72 -13 19 -13 24 0 44 8 12 12 29 9 38 -4 8 1 29 9 46 9 16 16 41 16 54 0 16 13 33 45 55 25 17 45 36 45 42 0 5 11 10 25 10 26 0 55 41 55 80 0 11 7 20 15 20 20 0 19 26 -1 34 -30 12 -59 6 -72 -14z" />
        <path d="M5186 1468 c-2 -7 -9 -29 -16 -48 -20 -56 -28 -129 -16 -149 6 -11 22 -40 36 -66 l25 -47 -24 -19 -23 -19 21 -29 c23 -31 27 -71 11 -87 -8 -8 -6 -15 4 -23 8 -7 12 -19 9 -27 -6 -16 61 -49 83 -40 45 17 34 145 -22 259 -8 16 -14 40 -14 54 0 14 -8 36 -19 49 -16 20 -18 36 -13 114 5 87 4 90 -17 90 -12 0 -23 -6 -25 -12z" />
        <path d="M705 1060 c-8 -12 20 -24 35 -15 6 3 8 11 5 16 -8 12 -32 12 -40 -1z" />
        <path d="M5760 720 c0 -5 7 -10 15 -10 8 0 15 5 15 10 0 6 -7 10 -15 10 -8 0 -15 -4 -15 -10z" />
        <path d="M5460 700 c0 -5 9 -10 21 -10 11 0 17 5 14 10 -3 6 -13 10 -21 10 -8 0 -14 -4 -14 -10z" />
        <path d="M410 593 c0 -10 4 -25 10 -33 8 -12 10 -12 16 3 7 20 -1 47 -16 47 -5 0 -10 -8 -10 -17z" />
        <path d="M2696 382 c-3 -6 -1 -14 5 -17 15 -10 25 3 12 16 -7 7 -13 7 -17 1z" />
        <path d="M6690 310 c0 -11 5 -20 10 -20 6 0 10 9 10 20 0 11 -4 20 -10 20 -5 0 -10 -9 -10 -20z" />
        <path d="M2464 15 c-18 -14 -17 -14 15 -15 29 0 32 2 21 15 -15 18 -12 18 -36 0z" />
        <path d="M1427 8 c-7 -4 47 -7 118 -6 141 1 135 6 -13 10 -52 2 -99 0 -105 -4z" />
        <path d="M1725 10 c-27 -7 -25 -8 18 -9 30 -1 46 3 42 9 -7 11 -16 11 -60 0z" />
        <path d="M2005 10 l-60 -7 78 -1 c50 -1 76 2 72 8 -3 5 -12 9 -18 8 -7 -1 -39 -4 -72 -8z" />
        <path d="M538 3 c18 -2 45 -2 60 0 15 2 0 4 -33 4 -33 0 -45 -2 -27 -4z" />
        <path d="M723 3 c9 -2 25 -2 35 0 9 3 1 5 -18 5 -19 0 -27 -2 -17 -5z" />
        <path d="M998 3 c12 -2 32 -2 45 0 12 2 2 4 -23 4 -25 0 -35 -2 -22 -4z" />
        <path d="M2183 3 c9 -2 25 -2 35 0 9 3 1 5 -18 5 -19 0 -27 -2 -17 -5z" />
        <path d="M2283 3 c9 -2 25 -2 35 0 9 3 1 5 -18 5 -19 0 -27 -2 -17 -5z" />
    </g>
</svg> 